<?xml version="1.0" encoding="UTF-8" standalone="no"?>
<!-- Generator: Adobe Illustrator 15.0.0, SVG Export Plug-In . SVG Version: 6.00 Build 0)  -->

<svg
   xmlns:dc="http://purl.org/dc/elements/1.1/"
   xmlns:cc="http://creativecommons.org/ns#"
   xmlns:rdf="http://www.w3.org/1999/02/22-rdf-syntax-ns#"
   xmlns:svg="http://www.w3.org/2000/svg"
   xmlns="http://www.w3.org/2000/svg"
   xmlns:xlink="http://www.w3.org/1999/xlink"
   xmlns:sodipodi="http://sodipodi.sourceforge.net/DTD/sodipodi-0.dtd"
   xmlns:inkscape="http://www.inkscape.org/namespaces/inkscape"
   version="1.1"
   id="svg2816"
   sodipodi:docname="Malvern College Crest.svg"
   inkscape:version="0.47 r22583"
   x="0px"
   y="0px"
   width="150"
   height="260.12613"
   viewBox="339.547 127.681 150 260.12613"
   enable-background="new 339.547 127.681 65 83"
   xml:space="preserve"><metadata
   id="metadata494"><rdf:RDF><cc:Work
       rdf:about=""><dc:format>image/svg+xml</dc:format><dc:type
         rdf:resource="http://purl.org/dc/dcmitype/StillImage" /></cc:Work></rdf:RDF></metadata>
<defs
   id="defs3">
	
	
		<inkscape:perspective
   id="perspective2824"
   inkscape:vp_z="1 : 0.5 : 1"
   inkscape:vp_y="0 : 1000 : 0"
   inkscape:vp_x="0 : 0.5 : 1"
   sodipodi:type="inkscape:persp3d"
   inkscape:persp3d-origin="0.5 : 0.33333333 : 1">
		</inkscape:perspective>
</defs>
<sodipodi:namedview
   id="namedview2818"
   inkscape:cy="119.81991"
   inkscape:cx="123.87506"
   inkscape:zoom="1"
   showgrid="false"
   guidetolerance="10"
   gridtolerance="10"
   objecttolerance="10"
   borderopacity="1"
   bordercolor="#666666"
   pagecolor="#ffffff"
   inkscape:window-maximized="1"
   inkscape:current-layer="g2826"
   inkscape:window-y="-4"
   inkscape:window-x="-4"
   inkscape:window-height="844"
   inkscape:window-width="1440"
   inkscape:pageshadow="2"
   inkscape:pageopacity="0">
	</sodipodi:namedview>
<g
   id="g2826"
   transform="matrix(1.25,0,0,-1.25,43.16955,1141.4515)"
   inkscape:label="1238682235-March - Lent 2009"
   inkscape:groupmode="layer">
	<g
   id="g3796"
   transform="matrix(4.0582997,0,0,4.0582997,-902.89416,-2500.3381)">
		<g
   id="g9">
			<defs
   id="defs11">
				<rect
   id="SVGID_1_"
   x="192.70799"
   y="697.43201"
   width="208.345"
   height="131.11301" />
			</defs>
			<clipPath
   id="SVGID_2_">
				<use
   xlink:href="#SVGID_1_"
   overflow="visible"
   id="use15"
   style="overflow:visible"
   x="0"
   y="0"
   width="65"
   height="83" />
			</clipPath>
			<g
   id="g3798"
   clip-path="url(#SVGID_2_)">
				<g
   id="g3860"
   transform="translate(297.827,798.9285)">
					<path
   id="path3862"
   d="M 0,0 C -0.277,0.713 0.194,1.435 -0.082,2.148 0.194,2.286 -0.277,2.424 0,2.561 -0.098,2.764 -0.139,3.105 0,3.308 0.121,2.254 0.121,1.046 0,0 M -0.203,5.598 C -0.405,5.375 -1.056,6.307 -0.811,6.55 -0.616,6.745 0.043,5.868 -0.203,5.598 m -0.048,-1.22 c -0.257,0.186 -0.087,0.843 -0.703,0.632 -0.195,0.47 -0.891,1.318 -0.538,1.516 0.382,0.216 0.446,-0.6 0.663,-0.908 0.342,0 0.809,-0.709 0.578,-1.24 M -0.333,1.986 c -0.009,0.9 -0.259,1.703 -0.577,2.473 0.058,0.584 0.438,0 0.414,-0.243 0.058,-0.852 0.237,-1.338 0.163,-2.23 M -0.745,0.332 c -0.016,1.394 -0.829,2.676 -0.414,4.046 0.495,-1.394 0.745,-3.137 0.745,-4.71 -0.236,0.024 -0.219,0.437 -0.331,0.664 M -0.99,-0.664 c -0.939,-0.057 -1.929,-0.235 -2.812,-0.163 0.081,0.657 0.89,0.082 1.069,0.495 -0.17,0.069 -0.914,0.061 -1.069,0 -0.203,-0.154 -0.309,-0.349 -0.333,-0.576 -0.081,-0.032 -0.114,0.033 -0.162,0.081 0.045,1.205 1.186,0.458 1.709,0.704 0.097,-0.105 0.256,-0.208 0.439,-0.29 0.184,-0.084 0.332,0.105 0.493,0.161 0,0.098 0.026,0.196 -0.079,0.252 -0.333,-0.292 -0.552,0.162 -0.827,0.243 0.048,0.155 -0.04,0.266 -0.171,0.333 C -2.877,0.648 -2.9,0.494 -2.895,0.243 -3.118,0.296 -3.044,0.646 -3.227,0.746 -3.422,0.853 -3.443,0.374 -3.559,0.413 c -0.116,0.041 -0.059,0.452 -0.152,0.57 -0.093,0.119 -0.16,0.11 -0.424,-0.075 -0.209,0.261 -0.321,0.496 -0.081,0.827 0.559,0.47 1.847,-0.3 1.987,0.657 -0.873,0.571 -0.954,1.179 -1.16,2.237 1.179,-1.24 0.055,0.161 0.273,0.361 0.09,0.082 0.553,-0.521 0.73,-0.259 0.288,0.431 0.601,0.316 0.73,-0.434 C -2.189,4.037 -1.318,3.774 -1.764,3.409 -1.732,2.112 -0.868,1.589 -0.99,0.413 -1.039,0.365 -1.104,0.324 -1.079,0.243 -1.201,0.657 -1.857,0.729 -1.492,1.241 L -1.656,1.402 -1.906,1.16 -2.068,1.402 C -2.165,1.257 -2.311,1.216 -2.481,1.241 -2.587,1.411 -2.757,1.402 -2.895,1.484 -2.951,1.402 -3.089,1.354 -3.057,1.241 -2.652,0.9 -2.141,0.827 -1.735,0.495 -1.656,-0.122 -0.39,0.057 -0.99,-0.664 M -4.47,3.48 c 0.044,0.179 0.209,0.344 0.335,0.484 -0.041,0.219 0.04,0.455 0.252,0.495 C -3.511,4.183 -3.6,3.567 -3.389,3.137 L -2.733,2.23 C -3.377,2.519 -3.983,2.284 -4.47,1.929 V 3.48 z m 3.148,1.644 c -0.592,0.397 -1.09,0.636 -0.766,0.9 0.324,0.262 0.526,-0.203 0.766,-0.9 M -4.824,4.037 c -0.5,0.432 0.68,0.956 1.103,1.338 0.137,1.459 1.788,1.757 2.811,2.31 0.3,0.163 0.505,0.479 0.495,0.828 C -0.342,8.14 -0.415,7.564 -0.7,7.331 -0.852,7.206 -0.73,6.883 -0.99,6.778 -1.439,7.726 -1.5,6.54 -1.906,6.364 -2.627,7.209 -2.372,5.568 -2.733,5.286 -3.334,5.993 -3.648,4.665 -4.216,4.71 -4.777,4.754 -4.236,3.53 -4.824,4.037 M 0.412,8.431 C 1.215,8.212 0.324,6.105 0.018,3.672 0.223,5.273 -0.113,8.574 0.412,8.431 M 0.494,1.16 C 0.218,2.408 0.405,4.078 0.607,5.618 1.053,4.078 0.338,2.53 0.494,1.16 m 9.661,-8.396 c -0.066,0.042 -0.134,0.08 -0.205,0.117 0.56,0.299 1.146,0.516 1.627,0.998 -0.47,1.395 -2.045,0.43 -3.145,0.827 0,0.147 0.169,0.219 0.251,0.333 0.85,0.697 2.415,0.21 2.812,1.484 -0.55,0.656 0.633,1.004 0.577,1.653 -0.446,0.341 -1.053,0.065 -1.573,0.09 -0.006,0.095 -0.067,0.19 -0.153,0.276 -0.142,0.145 -0.356,0.261 -0.503,0.299 0.352,0.373 0.591,0.997 0.325,1.572 L 9.508,0.162 C 9.532,0.867 8.877,2.254 7.855,2.392 7.21,2.478 6.727,1.921 6.535,1.322 6.591,0.673 7.443,0.892 7.604,0.495 7.141,0.105 7.085,-0.454 6.777,-0.908 6.541,-0.301 6.039,-0.016 5.43,-0.461 5.212,-0.623 5.231,-1.017 5.384,-1.458 5.562,-1.97 5.917,-2.546 6.282,-2.894 6.063,-3.113 5.926,-2.685 5.617,-2.813 4.883,-3.117 5.523,-4.505 5.787,-4.88 5.422,-4.921 4.912,-4.839 4.546,-4.629 c -0.015,0.349 0.39,0.381 0.576,0.576 -0.21,0.526 -0.494,1.061 -1.151,1.078 -0.429,0.251 0.138,0.599 -0.17,0.908 -0.698,0.251 -1.387,-0.032 -1.816,-0.665 -0.413,-0.122 -0.592,0.511 -0.891,0.649 0.79,0.181 1.116,0.407 1.157,0.625 0.084,0.461 -1.125,0.878 -1.92,0.713 0.358,1.053 0.722,3.586 0.601,4.215 0,0 0.034,0.324 0.076,0.85 0.134,1.72 0.288,5.555 -0.47,7.09 -0.151,0.307 -0.759,0.126 -0.953,-0.166 -0.592,0.422 -1.723,0.282 -2.229,0.162 C -3.05,11.31 -4.322,10.697 -4.135,10.085 -3.966,9.535 -3.221,9.952 -2.562,9.509 -2.595,9.282 -2.497,9.015 -2.644,8.844 -3.454,8.14 -4.225,7.272 -4.135,6.112 -4.232,5.821 -3.584,5.618 -4.054,5.375 -4.216,5.399 -4.314,5.043 -4.468,5.286 v 10.948 h -0.07 v 0.271 H -4.737 V 16.234 H -4.801 V 15.225 H -5.713 L -5.865,15.41 H -6.713 L -6.844,15.225 H -7.209 L -7.576,15.593 -7.969,15.2 -7.64,14.87 v -1.571 l -0.317,-0.316 0.419,-0.418 0.303,0.304 h 0.34 l 0.182,-0.161 h 0.848 l 0.152,0.161 H -4.801 -4.8 V 4.872 C -5.067,4.687 -5.143,4.562 -5.157,4.32 -5.168,3.854 -5.039,3.651 -4.8,3.632 v -4.54 c -0.833,0.048 -1.362,-0.203 -1.524,-0.55 -0.109,-0.237 -0.105,-0.589 0.202,-0.779 0.283,-0.175 0.496,0.194 0.747,-0.082 -0.289,-1.35 -2.144,-1.466 -2.6,-2.116 -0.454,-0.644 0.587,-0.556 1.108,-0.607 -0.551,-0.309 -1.046,-0.73 -1.654,-0.917 -0.275,-0.121 -0.835,-0.494 -0.989,0 0.47,0.893 0.81,1.938 0.665,2.984 -1.144,-0.406 -0.179,1.216 -0.827,1.483 0.015,0.011 0.03,0.022 0.043,0.034 0.11,0.095 0.184,0.205 0.119,0.38 -0.063,0.167 -0.488,0.119 -0.629,0.099 -0.14,-0.02 -0.415,-0.1 -0.569,-0.479 h -0.09 c -0.233,0.559 -0.554,0.806 -0.779,1.206 -0.583,1.036 0.769,0.454 0.996,1.079 0.123,0.478 -0.169,0.778 -0.502,1.07 -0.357,0.098 -0.924,0.195 -1.24,-0.081 -0.575,-0.421 -0.705,-1.184 -0.738,-1.897 l -1.208,0.115 c -0.291,-0.024 -0.423,-0.167 -0.658,-0.314 0.141,-0.557 0.519,-0.886 0.845,-1.178 0.113,-0.103 0.233,-0.195 0.357,-0.276 -0.26,-0.09 -0.512,-0.219 -0.828,-0.171 -0.372,-0.276 0,-0.657 0,-0.989 -0.793,-0.032 -1.531,-0.178 -2.067,-0.827 -0.113,-0.371 1.293,-1.068 1.654,-1.078 -0.719,-0.509 -1.429,-0.146 -1.049,-0.559 0.416,-0.452 1.511,-0.797 1.807,-0.677 0.171,-0.601 -0.638,-0.416 -0.281,-1.201 0.219,-0.481 0.835,-0.672 1.339,-0.79 -1.606,-0.421 -2.414,-1.975 -2.229,-3.219 0.09,-0.607 0.57,0.108 0.909,-0.118 0.337,-0.222 -0.236,-1.277 -0.083,-1.867 0.051,-0.196 0.138,-0.331 0.227,-0.476 0.135,-0.225 0.271,-0.475 0.267,-1.016 -0.007,-1.609 2.619,-1.67 3.56,-3.137 -1.114,0.554 -2.088,0.13 -1.567,-0.93 0.034,-0.08 0.077,-0.167 0.128,-0.259 -0.084,0.098 -0.182,0.192 -0.289,0.259 -0.204,0.135 -0.44,0.179 -0.675,0 -0.026,-0.019 -0.052,-0.042 -0.077,-0.067 -0.131,-0.163 -0.131,-0.487 0,-0.657 0.235,-0.348 0.607,-0.689 1.07,-0.664 0.834,0.842 0.657,-0.82 1.41,-0.747 0.154,0.406 0.275,0.819 0.575,1.16 0.104,0.314 0.161,0.641 0.175,0.975 0.045,1.097 -0.374,2.238 -1.083,3.078 0.39,0.252 0.965,0.235 1.241,0.576 -0.243,0.478 -0.454,1.045 -0.99,1.33 0.005,0.033 0.01,0.067 0.017,0.099 0.062,0.341 0.206,0.653 0.145,1.052 -0.672,0.445 -1.563,0.17 -2.228,-0.082 -0.223,1.229 0.667,1.842 1.24,1.988 0.097,-0.902 0.624,-1.287 1.07,-1.241 0.154,0.923 0.985,2.028 1.574,2.31 0.392,0.188 1.312,-0.268 1.984,0 0.188,-0.147 0.301,-0.402 0.252,-0.652 l -2.489,-0.005 c 0,0 10e-4,-1.445 0.004,-3.37 0.023,-0.038 0,-5.088 0,-5.088 v -3.799 c 0.006,-3.628 4.363,-7.398 7.555,-7.753 3.226,0.523 7.516,4.172 7.526,7.82 v 3.732 5.088 l 0.011,3.07 c 0.389,-0.454 1.038,-0.592 1.605,-0.609 0.487,0.277 -0.277,0.835 0.333,0.99 0.875,-0.291 1.857,-0.835 2.148,-1.734 -1.695,0.016 -2.983,0.725 -3.073,-0.227 -0.08,-0.853 0.503,-0.908 0.842,-1.095 -0.096,-0.146 -0.247,-0.27 -0.395,-0.395 -0.272,-0.23 -0.531,-0.463 -0.431,-0.845 0.306,-0.579 0.826,-0.192 0.987,-0.414 -2.523,-3.027 -1.267,-5.096 -0.162,-5.212 0.457,-0.05 0.365,0.396 0.577,0.582 0.153,0.137 0.289,-0.275 0.505,-0.344 0.648,-0.203 1.338,0.86 1.399,1.15 0.133,0.639 0.161,0.999 -1.055,0.431 0.994,1.196 0.203,1.5 -1.42,0.872 -0.038,0.851 2.798,1.419 2.968,2.854 0.21,0.283 0.181,0.605 0.141,0.926 -0.05,0.412 -0.12,0.821 0.273,1.14 0.454,0.665 -0.203,1.484 0.252,2.149 0.242,-0.227 0.494,0.049 0.745,0.081 0.247,0.867 -0.97,2.335 -2.164,3.1"
   style="fill:#072e1b" />
				</g>
				<g
   id="g3864"
   transform="translate(293.6113,803.6384)">
					<path
   id="path3866"
   d="M 0,0 C 0.567,-0.045 0.882,1.284 1.483,0.576 1.844,0.858 1.589,2.499 2.31,1.654 2.715,1.83 2.777,3.016 3.227,2.068 3.486,2.173 3.365,2.496 3.516,2.621 3.8,2.854 3.874,3.43 3.802,3.803 3.81,3.454 3.607,3.138 3.307,2.975 2.283,2.422 0.631,2.124 0.495,0.665 0.072,0.283 -1.109,-0.241 -0.609,-0.673 -0.021,-1.179 -0.562,0.044 0,0"
   style="fill:#ffffff" />
				</g>
				<g
   id="g3868"
   transform="translate(298.2394,807.3593)">
					<path
   id="path3870"
   d="M 0,0 C -0.525,0.143 -0.19,-3.157 -0.393,-4.759 -0.089,-2.326 0.803,-0.219 0,0"
   style="fill:#ffffff" />
				</g>
				<g
   id="g3872"
   transform="translate(296.9984,804.5468)">
					<path
   id="path3874"
   d="M 0,0 C -0.219,0.308 -0.281,1.124 -0.664,0.908 -1.017,0.71 -0.319,-0.138 -0.126,-0.608 0.491,-0.398 0.321,-1.054 0.577,-1.241 0.808,-0.709 0.343,0 0,0"
   style="fill:#ffffff" />
				</g>
				<g
   id="g3876"
   transform="translate(295.7389,804.9522)">
					<path
   id="path3878"
   d="M 0,0 C -0.324,-0.264 0.174,-0.503 0.766,-0.9 0.526,-0.202 0.324,0.263 0,0"
   style="fill:#ffffff" />
				</g>
				<g
   id="g3880"
   transform="translate(298.4342,804.5468)">
					<path
   id="path3882"
   d="M 0,0 C -0.203,-1.54 -0.389,-3.21 -0.114,-4.458 -0.269,-3.089 0.446,-1.54 0,0"
   style="fill:#ffffff" />
				</g>
				<g
   id="g3884"
   transform="translate(296.9181,803.3875)">
					<path
   id="path3886"
   d="M -0.001,0 C 0.316,-0.77 0.566,-1.573 0.576,-2.473 0.649,-1.581 0.471,-1.095 0.413,-0.243 0.437,0 0.057,0.583 -0.001,0"
   style="fill:#ffffff" />
				</g>
				<g
   id="g3888"
   transform="translate(295.0939,801.1581)">
					<path
   id="path3890"
   d="M 0,0 -0.656,0.908 C -0.867,1.337 -0.778,1.953 -1.15,2.229 -1.362,2.189 -1.443,1.953 -1.402,1.735 -1.528,1.594 -1.693,1.429 -1.737,1.25 V -0.3 C -1.25,0.054 -0.643,0.29 0,0"
   style="fill:#ffffff" />
				</g>
				<g
   id="g3892"
   transform="translate(297.0807,799.2608)">
					<path
   id="path3894"
   d="m 0,0 c 0.113,-0.227 0.097,-0.64 0.332,-0.665 0,1.573 -0.252,3.316 -0.746,4.71 C -0.828,2.676 -0.016,1.394 0,0"
   style="fill:#ffffff" />
				</g>
				<g
   id="g3896"
   transform="translate(297.827,801.4896)">
					<path
   id="path3898"
   d="M 0,0 C -0.277,-0.137 0.194,-0.275 -0.082,-0.413 0.194,-1.126 -0.277,-1.848 0,-2.561 0.121,-1.515 0.121,-0.307 0,0.747 -0.139,0.544 -0.099,0.203 0,0"
   style="fill:#ffffff" />
				</g>
				<g
   id="g3900"
   transform="translate(297.0161,805.4789)">
					<path
   id="path3902"
   d="M 0,0 C -0.245,-0.243 0.405,-1.176 0.608,-0.953 0.853,-0.682 0.195,0.195 0,0"
   style="fill:#ffffff" />
				</g>
				<g
   id="g3904"
   transform="translate(296.092,799.4234)">
					<path
   id="path3906"
   d="m 0,0 c -0.406,0.332 -0.917,0.405 -1.322,0.746 -0.032,0.113 0.106,0.161 0.162,0.243 0.138,-0.082 0.308,-0.073 0.414,-0.243 0.17,-0.025 0.316,0.016 0.413,0.161 L -0.171,0.665 0.079,0.907 0.243,0.746 C -0.122,0.234 0.534,0.162 0.656,-0.252 0.631,-0.171 0.696,-0.13 0.745,-0.081 0.867,1.094 0.003,1.617 -0.029,2.914 0.417,3.279 -0.454,3.542 0.079,3.802 -0.05,4.552 -0.363,4.667 -0.651,4.236 -0.828,3.974 -1.292,4.577 -1.381,4.495 -1.599,4.296 -0.475,2.894 -1.654,4.134 -1.448,3.076 -1.367,2.468 -0.494,1.897 -0.634,0.94 -1.922,1.71 -2.481,1.24 -2.721,0.909 -2.609,0.674 -2.4,0.413 c 0.264,0.185 0.331,0.194 0.424,0.075 0.092,-0.118 0.036,-0.529 0.152,-0.569 0.116,-0.04 0.137,0.439 0.332,0.332 0.183,-0.1 0.109,-0.45 0.332,-0.503 -0.005,0.251 0.018,0.405 0.162,0.333 0.131,-0.067 0.219,-0.178 0.171,-0.333 0.275,-0.081 0.494,-0.535 0.827,-0.243 0.105,-0.056 0.079,-0.154 0.079,-0.252 -0.161,-0.056 -0.309,-0.245 -0.493,-0.161 -0.183,0.083 -0.342,0.185 -0.439,0.29 -0.523,-0.246 -1.664,0.501 -1.709,-0.704 0.048,-0.048 0.081,-0.113 0.162,-0.081 0.024,0.227 0.13,0.422 0.333,0.576 0.155,0.061 0.899,0.069 1.069,0 -0.179,-0.413 -0.988,0.162 -1.069,-0.495 0.883,-0.072 1.873,0.106 2.812,0.163 C 1.345,-0.438 0.079,-0.617 0,0"
   style="fill:#ffffff" />
				</g>
				<g
   id="g3908"
   transform="translate(301.5724,772.0113)">
					<path
   id="path3910"
   d="m 0,0 c -0.693,-0.929 -2.989,-2.821 -5.22,-3.158 -2.296,0.304 -4.052,1.773 -5.319,3.174 1.468,1.897 3.663,3.375 5.219,5.24 L 0,0"
   style="fill:#b3cbb9" />
				</g>
				<g
   id="g3912"
   transform="translate(293.4408,788.2599)">
					<path
   id="path3914"
   d="M 0,0 C 0.137,-0.227 0.346,-0.424 0.665,-0.576 1.495,-0.518 1.748,-0.339 2.237,0 h 7.854 V -9.842 L 2.894,-2.724 -4.297,-9.842 V 0 H 0"
   style="fill:#b3cbb9" />
				</g>
				<g
   id="g3916"
   transform="translate(289.4087,785.349)">
					<path
   id="path3918"
   d="m 0,0 c 0,1.447 1.173,2.62 2.621,2.62 1.448,0 2.62,-1.173 2.62,-2.62 0,-1.448 -1.172,-2.622 -2.62,-2.622 C 1.173,-2.622 0,-1.448 0,0"
   style="fill:#ffffff" />
				</g>
				<g
   id="g3920"
   transform="translate(297.9761,785.349)">
					<path
   id="path3922"
   d="M 0,0 C 0,1.447 1.172,2.62 2.62,2.62 4.068,2.62 5.243,1.447 5.243,0 5.243,-1.448 4.069,-2.622 2.62,-2.622 1.172,-2.622 0,-1.448 0,0"
   style="fill:#ffffff" />
				</g>
				<g
   id="g3924"
   transform="translate(293.7431,772.4971)">
					<path
   id="path3926"
   d="M 0,0 C 0,1.446 1.174,2.62 2.62,2.62 4.068,2.62 5.241,1.446 5.241,0 5.241,-1.448 4.068,-2.622 2.62,-2.622 1.174,-2.622 0,-1.448 0,0"
   style="fill:#ffffff" />
				</g>
				<g
   id="g3928"
   transform="translate(296.3678,765.1812)">
					<path
   id="path3930"
   d="m 0,0 c -4.148,0.104 -8.386,2.123 -11.403,5.952 -0.436,0.553 -0.967,1.343 -0.473,2.08 1.046,0.398 -0.227,1.006 0,1.654 1.054,0.227 0.842,2.011 1.905,1.655 0.868,-0.292 -0.064,-1.202 0.414,-1.411 C -8.786,9.589 -7.873,8.957 -7.993,8.113 -8.055,7.672 -8.707,7.523 -9.072,7.336 -7.198,4.574 -3.808,2.33 0,2.324 3.809,2.33 7.198,4.574 9.071,7.336 8.708,7.523 8.055,7.672 7.993,8.113 7.873,8.957 8.786,9.589 9.558,9.93 c 0.477,0.209 -0.455,1.119 0.414,1.411 1.063,0.356 0.85,-1.428 1.905,-1.655 0.226,-0.648 -1.046,-1.256 0,-1.654 C 12.371,7.295 11.839,6.505 11.404,5.952 8.385,2.123 4.148,0.104 0,0"
   style="fill:#072e1b" />
				</g>
				<g
   id="g3932"
   transform="translate(286.3969,776.1886)">
					<path
   id="path3934"
   d="m 0,0 c -0.722,0.5 -0.753,-1.191 -1.572,-1.491 0.113,-0.283 0.065,-0.633 0.413,-0.827 0.324,0.405 0.609,1.135 1.321,1.078 -0.203,0.268 -0.818,0.446 -0.575,0.827 C 0.173,-0.58 0.289,-0.2 0,0"
   style="fill:#b3cbb9" />
				</g>
				<g
   id="g3936"
   transform="translate(286.1457,774.5349)">
					<path
   id="path3938"
   d="m 0,0 c -0.553,-0.26 -0.511,-1.281 -1.24,-1.402 v -0.17 c 0.674,0.161 1.078,0.973 1.736,1.159 -0.14,-0.591 0.309,-0.913 0.518,-1.351 0.277,0.219 0.932,0.224 0.891,0.686 -0.048,0.462 -0.267,0.851 -0.665,1.16 L 0.828,0.252 1.654,-1.078 1.492,-1.241 C 0.608,-1.062 1.151,0.544 0,0"
   style="fill:#669276" />
				</g>
				<g
   id="g3940"
   transform="translate(296.3678,765.3687)">
					<path
   id="path3942"
   d="m 0,0 c -4.408,0.071 -8.931,2.384 -11.774,6.946 0.04,0.236 0.474,0.372 0.644,0.486 0.357,0.243 0.681,0.583 1.07,0.745 C -7.746,4.11 -3.929,1.907 0,1.922 3.93,1.907 7.745,4.11 10.06,8.177 10.449,8.015 10.773,7.675 11.13,7.432 11.3,7.318 11.735,7.182 11.775,6.946 8.931,2.384 4.409,0.071 0,0"
   style="fill:#b3cbb9" />
				</g>
				<g
   id="g3944"
   transform="translate(297.827,810.1725)">
					<path
   id="path3946"
   d="m 0,0 c -0.304,-0.134 -0.53,-0.867 -0.415,-1.411 h 0.171 c 0.028,0.419 0.495,0.507 0.73,0.214 C 0.496,-0.397 0.218,0.097 0,0"
   style="fill:#ffffff" />
				</g>
				<g
   id="g3948"
   transform="translate(297.1616,809.589)">
					<path
   id="path3950"
   d="M 0,0 C -0.247,-0.442 -0.044,-0.624 0.008,-1.03 -0.593,-0.746 -0.47,-0.087 0,0"
   style="fill:#ffffff" />
				</g>
				<g
   id="g3952"
   transform="translate(294.8419,808.7317)">
					<path
   id="path3954"
   d="M 0,0 -0.574,0.12 C -0.395,0.284 -0.098,0.272 0,0"
   style="fill:#ffffff" />
				</g>
				<g
   id="g3956"
   transform="translate(297.9987,808.7421)">
					<path
   id="path3958"
   d="M 0,0 C -0.4,-0.041 -0.429,-0.493 0.111,-1.095 0.296,-0.663 0.293,0.03 0,0"
   style="fill:#ffffff" />
				</g>
				<g
   id="g3960"
   transform="translate(296.2527,808.3486)">
					<path
   id="path3962"
   d="M 0,0 C -0.346,-0.084 -0.069,-0.57 0.252,-0.656 0.398,-0.276 0.343,0.083 0,0"
   style="fill:#ffffff" />
				</g>
				<g
   id="g3964"
   transform="translate(297.0807,808.268)">
					<path
   id="path3966"
   d="M 0,0 C 0.388,-0.052 0.061,-0.677 0,-0.989 -0.198,-0.716 -0.194,0.026 0,0"
   style="fill:#ffffff" />
				</g>
				<g
   id="g3968"
   transform="translate(294.9317,806.7836)">
					<path
   id="path3970"
   d="M 0,0 C -0.364,0.378 0.666,0.679 0.625,1.158 0.836,1.15 0.998,1.012 0.99,0.833 0.432,0.823 0.342,-0.353 0,0"
   style="fill:#ffffff" />
				</g>
				<g
   id="g3972"
   transform="translate(297.6638,805.6246)">
					<path
   id="path3974"
   d="M 0,0 C -0.033,0.333 0.065,0.714 -0.088,0.989 -0.324,0.502 -0.507,0.187 0,0"
   style="fill:#ffffff" />
				</g>
				<g
   id="g3976"
   transform="translate(304.6847,800.1692)">
					<path
   id="path3978"
   d="M 0,0 C 0.231,-0.53 0.908,0.016 1.24,0.331 0.786,0.251 0.989,0.957 0.585,0.827 0.365,0.559 -0.227,0.519 0,0"
   style="fill:#669276" />
				</g>
				<g
   id="g3980"
   transform="translate(286.914,800.1692)">
					<path
   id="path3982"
   d="m 0,0 c 0.025,-0.211 -0.007,-0.471 -0.251,-0.495 -0.479,-0.121 -0.632,0.551 -1.159,0.324 -0.04,0.049 -0.106,0.09 -0.082,0.171 0.179,0.534 0.6,-0.008 0.828,0.162 L -0.996,0.413 C -0.575,0.478 -0.251,0.34 0,0"
   style="fill:#669276" />
				</g>
				<g
   id="g3984"
   transform="translate(306.0547,796.3124)">
					<path
   id="path3986"
   d="M 0,0 C 0.615,0.689 1.328,1.476 1.734,2.319 1.678,2.538 1.54,2.676 1.321,2.733 L 0.826,1.905 C 0.672,1.849 0.593,1.978 0.494,2.068 0.721,2.416 0.842,2.805 0.908,3.227 0.802,3.381 0.957,3.802 0.574,3.641 0.535,3.689 0.47,3.729 0.494,3.802 0.219,3.9 0.107,3.623 -0.17,3.721 -0.472,2.813 -1.273,2.003 -1.078,0.998 -1.67,0.746 -1.273,1.702 -1.742,1.905 -2.075,2.197 -1.864,1.727 -2.158,1.654 -2.375,1.557 -2.385,1.817 -2.481,1.905 -2.707,1.63 -2.432,1.354 -2.4,1.079 c 0.478,-0.698 1.086,-1.338 1.07,-2.238 -0.6,-0.218 -0.48,0.888 -1.07,0.827 -0.71,-0.073 0.245,-1.652 0.658,-2.23 0.38,-0.535 0.031,-1.184 -0.244,-1.653 0.648,0.138 0.956,0.576 1.484,0.99 0.218,1.629 1.985,1.588 3.145,1.985 0.657,0.357 -0.163,0.446 -0.163,0.746 0.09,0.089 0.171,0.218 0.325,0.162 0.178,0.195 0.438,0.357 0.332,0.665 -0.17,-0.025 -0.316,0.016 -0.414,0.162 0.09,0.333 0.511,0.04 0.585,0.251 H 2.723 C 2.172,0.722 2.172,0.244 1.815,-0.081 1.661,-0.129 1.582,-0.007 1.483,0.081 1.32,0.414 1.783,0.463 1.815,0.665 1.743,0.641 1.703,0.698 1.653,0.746 1.54,0.998 1.824,1.087 1.897,1.16 1.56,1.378 0.183,-0.689 0,0"
   style="fill:#669276" />
				</g>
				<g
   id="g3988"
   transform="translate(293.3589,798.515)">
					<path
   id="path3990"
   d="M 0,0 V 1.321 C 0.3,0.973 0.657,0.746 0.998,0.494 0.657,0.348 0.09,0.502 0,0"
   style="fill:#ffffff" />
				</g>
				<g
   id="g3992"
   transform="translate(282.1324,793.6461)">
					<path
   id="path3994"
   d="M 0,0 C 0.575,-0.067 1.166,0.625 2.091,0.68 1.928,0.974 0.506,0.631 -0.389,1.597 L -0.058,1.921 0.356,1.597 C 0.794,1.751 0.21,1.999 0.688,2.172 1.239,2.371 1.62,1.743 2.01,2.091 1.685,2.399 1.385,2.764 1.344,3.25 H 1.596 C 1.636,3.047 1.385,2.877 1.677,2.747 1.799,2.716 1.848,2.862 1.928,2.918 L 1.848,3.161 C 2.269,3.193 2.601,2.837 2.837,2.585 2.812,2.415 2.852,2.27 2.998,2.172 3.185,2.18 3.396,2.131 3.501,2.334 2.884,3.088 2.123,4.142 1.263,4.653 1.271,4.839 1.223,5.042 1.434,5.147 2.147,5.252 2.52,5.034 2.998,4.571 3.153,4.669 3.193,4.815 3.169,4.985 2.86,5.155 3.055,5.537 2.998,5.812 3.153,6.096 3.477,6.112 3.663,5.894 3.59,5.277 4.077,4.888 4.327,4.402 4.563,4.085 4.904,3.575 4.653,3.08 L 4.904,2.837 c 0.47,0.17 0.089,0.705 0.494,0.908 -0.106,0.252 0.163,0.422 0.333,0.494 H 5.893 C 5.706,3.963 5.868,3.631 6.063,3.412 6.242,2.578 5.747,2.026 5.568,1.345 6.144,1.07 5.982,2.034 6.556,2.009 6.435,2.042 6.387,1.897 6.306,1.839 6.306,1.629 6.598,1.605 6.638,1.507 6.501,0.267 5.495,-0.916 6.225,-2.213 4.766,-1.605 3.713,-0.009 1.848,-0.39 0.997,-0.456 0.271,-0.338 0,0"
   style="fill:#669276" />
				</g>
				<g
   id="g3996"
   transform="translate(305.6815,798.4338)">
					<path
   id="path3998"
   d="m 0,0 c -0.624,-0.486 0.243,-1.872 -0.746,-1.905 -0.049,0.194 0.316,0.275 0.334,0.495 -0.018,0.551 -0.034,1.167 0.331,1.491 L 0,0"
   style="fill:#072e1b" />
				</g>
				<g
   id="g4000"
   transform="translate(284.0205,798.3447)">
					<path
   id="path4002"
   d="M 0,0 C -0.04,-0.194 -0.227,-0.251 -0.414,-0.243 -0.52,-0.194 -0.495,-0.089 -0.495,0 -0.373,0.105 -0.122,0.138 0,0"
   style="fill:#072e1b" />
				</g>
				<g
   id="g4004"
   transform="translate(297.827,797.8503)">
					<path
   id="path4006"
   d="m 0,0 c 0.13,0.268 0.252,0.057 0.412,0 0.056,-0.194 0.234,-0.332 0.162,-0.575 -0.47,-0.049 -0.973,0 -1.152,0.494 -0.006,0.089 0.019,0.194 -0.087,0.251 l 0.088,0.081 C -0.39,0.162 -0.3,-0.097 0,0"
   style="fill:#b3cbb9" />
				</g>
				<g
   id="g4008"
   transform="translate(296.6667,797.4369)">
					<path
   id="path4010"
   d="m 0,0 c -0.356,-0.13 -0.414,0.292 -0.495,0.495 l 0.163,0.088 C -0.219,0.389 -0.105,0.194 0,0"
   style="fill:#b3cbb9" />
				</g>
				<g
   id="g4012"
   transform="translate(298.6531,797.9315)">
					<path
   id="path4014"
   d="M 0,0 V -0.243 L -0.252,0.089 C -0.154,0.081 -0.048,0.106 0,0"
   style="fill:#669276" />
				</g>
				<g
   id="g4016"
   transform="translate(306.0143,798.0204)">
					<path
   id="path4018"
   d="M 0,0 C -0.049,-0.137 -0.114,-0.259 -0.091,-0.413 0,-0.47 0.04,-0.616 0.163,-0.583 l -0.334,-0.495 c -0.243,0.227 -0.064,0.689 0,0.989 C -0.122,-0.04 -0.081,0.024 0,0"
   style="fill:#072e1b" />
				</g>
				<g
   id="g4020"
   transform="translate(299.0667,797.194)">
					<path
   id="path4022"
   d="M 0,0 C -0.301,0.138 -0.114,0.494 -0.162,0.737 L 0,0"
   style="fill:#669276" />
				</g>
				<g
   id="g4024"
   transform="translate(296.1714,797.356)">
					<path
   id="path4026"
   d="M 0,0 H -0.162 L -0.25,0.494 C -0.162,0.405 -0.079,0.162 0,0"
   style="fill:#b3cbb9" />
				</g>
				<g
   id="g4028"
   transform="translate(293.327,796.9562)">
					<path
   id="path4030"
   d="M 0,0 -0.211,0.732 0.032,0.319 0,0 z"
   style="fill:#b3cbb9" />
				</g>
				<g
   id="g4032"
   transform="translate(286.5015,797.194)">
					<path
   id="path4034"
   d="M 0,0 -0.082,-0.09 C -0.13,-0.041 -0.17,0.024 -0.252,0 L -0.333,-0.09 C -0.479,0.016 -0.519,0.154 -0.496,0.324 -0.3,0.3 0.007,0.186 0,0"
   style="fill:#072e1b" />
				</g>
				<g
   id="g4036"
   transform="translate(292.7596,797.2508)">
					<path
   id="path4038"
   d="M 0,0 C 0.027,-0.354 -0.953,-0.517 -1.003,0.02 -1.027,0.273 -0.061,0.77 0,0"
   style="fill:#b3cbb9" />
				</g>
				<g
   id="g4040"
   transform="translate(293.0741,797.0175)">
					<path
   id="path4042"
   d="M 0,0 -0.128,0.501 0.042,0.177 0,0 z"
   style="fill:#b3cbb9" />
				</g>
				<g
   id="g4044"
   transform="translate(287.5705,797.1042)">
					<path
   id="path4046"
   d="M 0,0 0.09,0.333 0.332,0 H 0 z"
   style="fill:#072e1b" />
				</g>
				<g
   id="g4048"
   transform="translate(285.7552,797.2752)">
					<path
   id="path4050"
   d="M 0,0 C 0.105,-0.057 0.081,-0.155 0.081,-0.252 0,-0.309 -0.048,-0.446 -0.162,-0.414 -0.291,-0.332 -0.291,-0.09 -0.162,0 L -0.081,-0.081 0,0"
   style="fill:#072e1b" />
				</g>
				<g
   id="g4052"
   transform="translate(296.8374,796.7803)">
					<path
   id="path4054"
   d="M 0,0 C 0.103,0.027 0.12,-0.965 0.323,-1.329 0.421,-1.321 0.526,-1.346 0.575,-1.241 0.398,-0.77 0.219,-0.195 0.413,0.324 0.721,-0.105 0.373,-1.127 1.07,-1.078 0.99,-0.689 0.908,-0.308 0.825,0.081 1.329,-0.43 1.297,-1.386 1.979,-1.824 l 0.17,0.171 c -0.309,0.6 -0.786,1.135 -0.909,1.816 0.195,-0.26 0.439,-0.641 0.577,-0.99 0.275,-0.17 0.478,-0.754 0.826,-0.502 -0.504,0.43 -0.576,1.029 -0.989,1.492 l 0.08,0.08 c 0.105,-0.38 0.463,-1.013 0.99,-1.07 0.81,0 1.11,1.468 1.986,0.575 C 4.596,-0.47 4.402,-0.657 4.379,-0.916 4.781,-1.023 5.671,-1.421 5.87,-1.743 5.585,-2.035 5.204,-2.456 4.71,-2.4 4.612,-2.254 4.466,-2.213 4.296,-2.238 l -0.081,-0.08 c 0.098,-0.349 0.634,-0.317 0.656,-0.666 -0.275,-0.121 -0.713,-0.121 -0.987,0 -0.18,0.179 -0.341,0.39 -0.577,0.415 L 3.138,-2.732 c 0.907,-0.876 2.171,-1.134 3.388,-0.989 0.284,0 0.509,0.389 0.747,0.243 0.04,-0.268 -0.277,-0.381 -0.414,-0.575 l 0.25,-0.171 C 6.729,-4.466 6.892,-5.294 6.2,-5.05 6.095,-5.099 6.12,-5.204 6.112,-5.294 6.38,-5.602 7.108,-5.326 7.02,-5.958 c -0.584,-0.374 -1.638,-0.374 -2.23,0 -0.055,0.153 -0.217,0.057 -0.33,0.08 L 4.38,-5.958 C 4.533,-6.347 4.978,-6.404 4.963,-6.866 4.855,-7.069 4.645,-7.028 4.459,-7.028 3.794,-6.259 2.9,-5.715 2.561,-4.88 l 0.08,0.081 c 0.332,-0.008 0.284,-0.664 0.665,-0.333 -0.047,0.43 -0.777,0.682 -0.664,1.079 l 0.665,-0.584 0.162,0.171 C 3.25,-4.134 2.659,-3.932 2.805,-3.478 3.177,-3.583 3.396,-4.289 3.8,-4.053 3.859,-3.591 3.281,-3.608 3.055,-3.307 2.869,-2.846 2.675,-2.4 2.148,-2.238 1.67,-2.464 1.768,-1.849 1.402,-1.824 0.892,-1.694 0.494,-2.003 0.243,-2.318 0.104,-2.594 0.22,-3.048 -0.171,-3.146 c -0.219,0.219 -0.648,0.284 -0.657,0.665 0.234,0.921 0.278,1.768 0.243,2.562 0.406,-0.218 0.025,-1.046 0.496,-1.159 C 0.186,-0.721 -0.264,-0.069 0,0"
   style="fill:#b3cbb9" />
				</g>
				<g
   id="g4056"
   transform="translate(295.5764,796.6831)">
					<path
   id="path4058"
   d="m 0,0 c 0.03,-0.132 -0.567,-0.061 -0.516,-0.223 0.051,-0.162 0.588,0.071 0.608,-0.121 0.02,-0.193 -0.659,-0.072 -0.608,-0.264 0.051,-0.192 0.699,0.132 0.709,-0.102 0.009,-0.233 -0.754,-0.045 -0.751,-0.141 0.011,-0.203 0.903,0.004 0.659,-0.13 -1.088,-0.598 -2.375,-0.689 -3.721,-0.665 0.074,0.43 0.834,0.065 0.874,0.258 0.041,0.192 -0.568,0.101 -0.527,0.284 0.041,0.182 0.547,-0.081 0.618,0.11 0.071,0.194 -0.441,0.221 -0.389,0.426 0.053,0.206 0.423,-0.225 0.511,-0.06 0.092,0.172 -0.349,0.156 -0.183,0.374 0.162,0.223 0.477,-0.242 0.629,-0.111 0.152,0.132 -0.192,0.781 0.627,0.253 C -1.256,0.223 -0.07,0.324 0,0"
   style="fill:#ffffff" />
				</g>
				<g
   id="g4060"
   transform="translate(286.914,795.621)">
					<path
   id="path4062"
   d="M 0,0 C -0.08,-0.057 -0.129,-0.203 -0.251,-0.17 -0.332,-0.081 -0.527,0.065 -0.332,0.162 -0.17,0.235 -0.04,0.057 0,0"
   style="fill:#072e1b" />
				</g>
				<g
   id="g4064"
   transform="translate(285.7552,795.451)">
					<path
   id="path4066"
   d="m 0,0 c 0,-0.09 0.016,-0.195 -0.081,-0.244 -0.098,0 -0.202,-0.024 -0.252,0.081 C -0.324,-0.041 -0.122,0.227 0,0"
   style="fill:#072e1b" />
				</g>
				<g
   id="g4068"
   transform="translate(302.2926,795.127)">
					<path
   id="path4070"
   d="M 0,0 V -0.09 C -0.186,-0.155 -0.397,0.064 -0.332,0.243 -0.088,0.307 -0.08,0.153 0,0"
   style="fill:#072e1b" />
				</g>
				<g
   id="g4072"
   transform="translate(290.7328,794.6965)">
					<path
   id="path4074"
   d="m 0,0 c -0.215,0.215 -0.76,-0.182 -0.709,-0.355 0.093,-0.316 2.198,-0.303 3.335,0.121 -1.177,-0.039 -3.02,-0.298 -3.072,-0.08 C -0.519,-0.014 0.182,-0.182 0,0"
   style="fill:#ffffff" />
				</g>
				<g
   id="g4076"
   transform="translate(291.3729,794.6237)">
					<path
   id="path4078"
   d="M 0,0 C 0.049,-0.14 0.272,-0.072 0.251,0.09 0.23,0.259 -0.047,0.134 0,0"
   style="fill:#ffffff" />
				</g>
				<g
   id="g4080"
   transform="translate(297.4943,792.8893)">
					<path
   id="path4082"
   d="m 0,0 c -0.527,0.009 -0.983,0.301 -1.234,0.617 0.203,-0.111 0.577,-0.203 0.82,-0.034 0.272,0.19 0.058,0.86 0.584,1.151 C 0.366,1.843 0.867,1.803 0.979,1.503 1.106,1.171 0.436,1.11 0.745,0.826 0.933,0.654 1.365,1.489 1.653,1.24 1.5,1.297 1.34,1.012 1.502,0.875 1.598,0.794 1.937,0.845 1.824,1.078 2.12,0.688 2.059,0.15 1.589,0.084 1.359,0.053 0.966,0.607 0.826,0.251 0.683,-0.119 1.661,0.06 1.589,-0.361 1.565,-0.498 0.997,-0.52 0.908,-0.414 0.485,-0.649 0.429,-0.008 0,0"
   style="fill:#669276" />
				</g>
				<g
   id="g4084"
   transform="translate(303.6142,793.6348)">
					<path
   id="path4086"
   d="M 0,0 C -0.592,0.065 -1.177,0.162 -1.653,0.495 -1.152,0.211 -0.445,0.414 0,0"
   style="fill:#b3cbb9" />
				</g>
				<g
   id="g4088"
   transform="translate(286.914,793.9671)">
					<path
   id="path4090"
   d="m 0,0 c 0.174,0.057 0.277,-0.878 0.414,-0.826 0.173,0.064 -0.035,0.724 0.08,0.745 0.337,0.059 -0.252,-1.373 0.332,-1.802 L 0.657,-1.986 c -0.325,0.154 0,0.722 -0.494,0.665 -0.227,0.153 -0.731,0.662 -0.575,0.737 0.488,0.238 0.217,-0.67 0.638,-0.37 C 0.316,-0.89 -0.154,-0.051 0,0"
   style="fill:#072e1b" />
				</g>
				<g
   id="g4092"
   transform="translate(291.2112,793.6348)">
					<path
   id="path4094"
   d="M 0,0 C 0.113,-0.47 -0.68,-0.227 -0.413,-0.665 -0.13,-0.6 0.089,-0.413 0.333,-0.251 0.437,-0.3 0.413,-0.405 0.413,-0.494 0.292,-0.576 0.097,-0.649 0.08,-0.827 0.275,-1.045 0.429,-0.682 0.665,-0.745 0.608,-0.803 -0.906,-1.286 -1.24,-1.402 -0.569,-0.731 -1.738,-1.518 -1.491,-0.745 -1.062,-0.325 -0.463,-0.332 0,0"
   style="fill:#b3cbb9" />
				</g>
				<g
   id="g4096"
   transform="translate(303.1205,793.3833)">
					<path
   id="path4098"
   d="M 0,0 C -0.293,-0.186 -0.771,-0.008 -1.08,0.17 -0.706,0.405 -0.398,-0.024 0,0"
   style="fill:#b3cbb9" />
				</g>
				<g
   id="g4100"
   transform="translate(284.0321,788.3066)">
					<path
   id="path4102"
   d="m 0,0 c -0.098,-0.388 -0.36,-0.725 -0.304,-1.171 0.017,-0.405 0.243,-0.681 0.577,-0.908 0.128,-0.129 0.404,-0.122 0.502,0.081 -0.09,0.584 0.081,1.264 0.494,1.736 0.657,0.21 1.313,0.777 1.655,1.41 C 3.628,0.954 2.631,0.556 2.753,0.15 2.825,-0.287 2.899,-0.716 3.337,-1.009 3.523,0.119 4.585,0.88 5.315,1.562 5.073,1.43 4.376,0.952 4.279,1.084 4.197,1.196 4.097,1.227 4.657,1.723 4.357,1.643 3.873,1.237 3.75,1.472 3.675,1.615 4.067,1.78 4.245,1.885 3.779,2.137 3.514,1.401 3.387,1.815 3.346,1.946 3.869,2.333 3.993,2.388 2.957,2.04 3.246,2.473 3.993,2.882 3.819,2.846 3.098,2.534 3.022,2.686 2.949,2.833 2.942,2.899 3.337,3.126 3.053,3.14 2.749,2.818 2.637,2.959 2.526,3.101 2.485,3.132 3.004,3.54 2.299,3.978 1.65,4.528 0.775,4.536 0.24,4.585 0.055,4.059 -0.415,3.961 -0.351,3.435 0.094,3.199 0.523,3.045 0.978,2.615 1.949,3.132 2.015,2.802 2.071,2.524 0.374,2.47 -0.203,1.993 -0.605,1.663 -1.521,0.355 -1.107,-0.363 -0.516,-0.354 -0.165,0.651 0.361,0.645 0.641,0.642 0.275,0.177 0,0"
   style="fill:#b3cbb9" />
				</g>
				<g
   id="g4104"
   transform="translate(292.37,789.3381)">
					<path
   id="path4106"
   d="m 0,0 c 0.303,0.042 -0.154,-0.372 -0.169,-0.583 0.283,-0.122 0.712,-0.122 0.996,0 v 0.169 C 0.746,-0.445 0.705,-0.381 0.657,-0.332 0.883,-0.057 0.981,0.341 0.576,0.495 0.827,0.77 1.112,0.957 1.322,1.322 L 1.16,1.484 0.333,0.827 0.244,0.908 0.989,1.735 0.908,1.816 C 0.802,1.679 0.617,1.751 0.495,1.654 0.454,1.703 0.39,1.743 0.414,1.816 0.495,1.872 0.543,2.011 0.657,1.979 V 2.148 C 0.463,2.181 0.333,2.035 0.162,1.979 -0.121,2.302 0.543,2.205 0.414,2.562 0.138,2.7 0.082,2.31 -0.169,2.392 -0.429,2.684 0.09,2.635 0.162,2.895 L 0.082,2.976 C -0.131,2.828 -0.359,2.794 -0.494,2.895 -0.629,2.994 -0.308,3 -0.25,3.137 c -0.407,0 -0.884,-0.332 -1.322,-0.494 -0.243,0.3 -0.446,-0.227 -0.666,0 C -2.764,2.424 -3.38,2.716 -3.891,2.562 -3.826,2.319 -3.681,2.116 -3.559,1.897 -3.166,1.688 -2.991,1.794 -2.813,1.564 -2.967,1.175 -3.737,1.613 -4.053,1.241 -3.891,0.795 -3.276,0.73 -2.813,0.657 -2.456,0.746 -2.042,1.184 -1.735,0.908 -1.46,0.662 -3.573,0.38 -2.067,0.081 -0.921,-0.147 -0.843,1.184 0.082,1.241 0.235,1.175 0.138,1.014 0.162,0.908 0.065,0.592 -0.267,0.859 -0.414,0.657 -0.689,0.349 -0.876,0 -0.908,-0.414 -0.47,-0.607 -0.357,-0.049 0,0"
   style="fill:#b3cbb9" />
				</g>
				<g
   id="g4108"
   transform="translate(284.5763,792.2797)">
					<path
   id="path4110"
   d="m 0,0 c 0.099,-0.3 -0.258,-0.187 -0.331,-0.414 -0.098,0.073 -0.341,0.017 -0.251,0.243 C -0.412,-0.057 -0.248,0.024 0,0"
   style="fill:#072e1b" />
				</g>
				<g
   id="g4112"
   transform="translate(302.7065,791.6486)">
					<path
   id="path4114"
   d="M 0,0 C -0.097,-0.057 -0.284,-0.235 -0.494,-0.162 L -0.585,0.081 C -0.391,0.057 -0.146,0.154 0,0"
   style="fill:#072e1b" />
				</g>
				<g
   id="g4116"
   transform="translate(297.5424,790.4406)">
					<path
   id="path4118"
   d="M 0,0 C 0.445,-0.591 0.786,0.373 1.362,0.219 2.057,0.985 2.958,-0.648 3.51,-1.435 3.429,-0.465 1.615,1.699 0.697,1.046 0.284,0.993 -0.195,0.997 -0.211,0.462 -0.709,-0.041 -0.689,-0.223 0,0"
   style="fill:#ffffff" />
				</g>
				<g
   id="g4120"
   transform="translate(299.0667,790.9922)">
					<path
   id="path4122"
   d="M 0,0 C -0.073,0.04 -0.276,0.284 -0.082,0.414 0.065,0.325 -0.025,0.137 0,0"
   style="fill:#072e1b" />
				</g>
				<g
   id="g4124"
   transform="translate(294.1059,788.0085)">
					<path
   id="path4126"
   d="M 0,0 C 1.404,0.013 2.058,1.516 3.056,2.068 2.917,2.1 2.732,2.003 2.642,2.156 2.407,2.424 2.714,2.562 2.893,2.732 L 2.318,2.57 C 2.269,2.618 2.205,2.659 2.229,2.732 1.589,2.408 1.02,1.905 0.413,1.492 -0.065,1.475 0.103,2.243 -0.162,2.238 -0.742,2.226 -0.792,0.453 0,0"
   style="fill:#ffffff" />
				</g>
				<g
   id="g4128"
   transform="translate(298.9852,790.2465)">
					<path
   id="path4130"
   d="m -0.001,0 c 0.009,-0.097 -0.152,-0.155 -0.25,-0.17 L -0.415,0 c 0.124,0.04 0.31,0.162 0.414,0"
   style="fill:#ffffff" />
				</g>
				<g
   id="g4132"
   transform="translate(301.4303,788.6791)">
					<path
   id="path4134"
   d="M 0,0 C -0.056,0.359 -0.572,1.049 0.278,0.821 0.514,1.008 0.636,1.227 0.692,1.486 1.365,1.372 1.667,0.53 2.015,-0.005 L 0,0"
   style="fill:#ffffff" />
				</g>
				<g
   id="g4136"
   transform="translate(298.293,788.6737)">
					<path
   id="path4138"
   d="m 0,0 h -2.282 c 0.357,0.194 0.608,0.648 1.071,0.576 C -1.075,0.47 -0.97,0.268 -0.799,0.251 -0.694,0.3 -0.717,0.405 -0.717,0.495 -0.832,0.689 -1.18,0.778 -1.043,1.079 -0.734,0.9 -0.252,1.037 -0.124,0.498 -0.085,0.364 -0.036,0.156 0,0"
   style="fill:#ffffff" />
				</g>
				<g
   id="g4140"
   transform="translate(298.4017,789.995)">
					<path
   id="path4142"
   d="M 0,0 C 0.015,-0.203 -0.219,-0.162 -0.324,-0.243 L -0.575,0 C -0.438,0.13 -0.138,0.13 0,0"
   style="fill:#ffffff" />
				</g>
				<g
   id="g4144"
   transform="translate(299.561,789.9138)">
					<path
   id="path4146"
   d="m 0,0 c -0.016,-0.235 -0.277,-0.218 -0.413,-0.332 l -0.245,0.251 C -0.527,0.162 -0.146,0.3 0,0"
   style="fill:#ffffff" />
				</g>
				<g
   id="g4148"
   transform="translate(295.1719,789.4576)">
					<path
   id="path4150"
   d="M 0,0 0.254,0.456 0.439,0.439 0,0 z"
   style="fill:#072e1b" />
				</g>
				<g
   id="g4152"
   transform="translate(295.5977,789.006)">
					<path
   id="path4154"
   d="M 0,0 0.199,0.468 0.181,0.063 0,0 z"
   style="fill:#072e1b" />
				</g>
				<g
   id="g4156"
   transform="translate(308.4055,788.7549)">
					<path
   id="path4158"
   d="M 0,0 0.064,0.056 0.478,-0.357 0.414,-0.414 0,0 z"
   style="fill:#ffffff" />
				</g>
				<g
   id="g4160"
   transform="translate(287.3578,788.1776)">
					<path
   id="path4162"
   d="M 0,0 C 0.076,-0.107 0.102,-0.279 0,-0.325 -0.102,-0.369 -0.445,-0.146 -0.413,0 -0.381,0.147 -0.074,0.107 0,0"
   style="fill:#072e1b" />
				</g>
				<g
   id="g4164"
   transform="translate(306.4803,782.7334)">
					<path
   id="path4166"
   d="m 0,0 c -0.848,-0.365 -1.012,-1.332 -1.439,-0.932 -0.303,0.284 1.68,2.564 1.67,2.611 -0.089,0.466 -1.73,-0.523 -1.484,0.324 0.442,-0.321 0.795,0.174 0.244,0.332 C -1.001,2.562 -0.263,2.716 0.068,3 -2.493,3.83 -0.871,4.722 0.148,4.07 0.54,3.884 1.033,3.722 1.471,3.908 1.939,4.107 2.558,4.549 2.55,5.148 3.1,3.827 1.398,2.634 1.722,1.922 1.796,1.762 1.995,1.652 1.885,1.508 1.94,1.58 0.861,0.372 0,0"
   style="fill:#669276" />
				</g>
				<g
   id="g4168"
   transform="translate(284.3529,787.1821)">
					<path
   id="path4170"
   d="m 0,0 c -0.017,-0.203 -0.454,0.089 -0.413,-0.243 l -0.09,0.081 0.252,0.332 C -0.17,0.113 -0.122,-0.032 0,0"
   style="fill:#072e1b" />
				</g>
				<g
   id="g4172"
   transform="translate(284.5964,786.9393)">
					<path
   id="path4174"
   d="m 0,0 c 0.072,-0.3 -0.275,-0.276 -0.414,-0.414 l -0.162,0.162 C -0.357,-0.227 -0.243,0.032 0,0"
   style="fill:#072e1b" />
				</g>
				<g
   id="g4176"
   transform="translate(305.7622,786.2744)">
					<path
   id="path4178"
   d="m 0,0 h -0.332 l 0.081,0.332 C -0.162,0.226 0.008,0.145 0,0"
   style="fill:#072e1b" />
				</g>
				<g
   id="g4180"
   transform="translate(308.4055,786.5249)">
					<path
   id="path4182"
   d="m 0,0 c -0.097,-0.324 -0.09,-0.616 -0.494,-0.665 l -0.081,0.09 c 0.17,0.097 0.185,0.275 0.081,0.413 0.17,0.049 0.3,0.195 0.494,0.162"
   style="fill:#072e1b" />
				</g>
				<g
   id="g4184"
   transform="translate(287.6603,784.1257)">
					<path
   id="path4186"
   d="m 0,0 c -0.105,0.049 -0.082,0.154 -0.09,0.251 1.177,-0.804 -0.658,-0.968 -1.402,-0.494 l -0.251,-0.252 c 0.462,-0.535 1.465,-0.939 1.684,-1.702 -0.172,0.193 -0.336,0.39 -0.443,0.301 -0.166,-0.139 0.194,-0.358 0.17,-0.585 -1.013,0.965 -2.862,0.981 -3.146,2.651 0.139,-0.138 0.223,-0.505 0.414,-0.413 0.259,0.123 -0.774,1.278 -0.908,2.31 0.397,-0.316 0.826,-0.535 0.665,-1.159 0.201,-0.398 0.624,-0.633 0.989,-0.827 0.056,0.138 0.283,0.065 0.251,0.251 -0.062,0.358 -0.503,0.276 -0.746,0.413 0.012,0.003 0.368,0.004 0.414,0.081 0.123,0.214 -0.39,0.22 -0.584,0.333 0.096,0.009 0.507,-0.119 0.584,0.081 0.097,0.253 -0.346,0.211 -0.665,0.292 0.615,-0.051 0.916,0.332 1.24,0.535 0.342,0.214 1.118,0.022 1.322,-0.162 0.364,-0.329 -1.359,-0.709 -0.909,-1.24 0.349,0.185 0.746,0 1.079,-0.081 C -0.879,-0.059 -0.418,-0.397 0,0"
   style="fill:#669276" />
				</g>
				<g
   id="g4188"
   transform="translate(286.914,785.95)">
					<path
   id="path4190"
   d="M 0,0 C 0.025,-0.081 -0.04,-0.122 -0.08,-0.171 -0.259,-0.146 -0.575,-0.105 -0.494,0.162 -0.282,0.227 -0.17,0.048 0,0"
   style="fill:#072e1b" />
				</g>
				<g
   id="g4192"
   transform="translate(308.4944,784.6197)">
					<path
   id="path4194"
   d="M 0,0 C -0.048,0.251 0.049,0.439 0.244,0.584 0.381,0.3 0.016,0.219 0,0"
   style="fill:#669276" />
				</g>
				<g
   id="g4196"
   transform="translate(296.748,783.5501)">
					<path
   id="path4198"
   d="M 0,0 C -0.454,0.316 -0.162,0.933 -0.243,1.402 0.211,1.085 -0.08,0.47 0,0"
   style="fill:#669276" />
				</g>
				<g
   id="g4200"
   transform="translate(295.3457,782.9663)">
					<path
   id="path4202"
   d="M 0,0 C 0.08,0.47 -0.203,1.094 0.252,1.411 0.162,0.94 0.454,0.316 0,0"
   style="fill:#669276" />
				</g>
				<g
   id="g4204"
   transform="translate(297.3318,782.9663)">
					<path
   id="path4206"
   d="M 0,0 C -0.497,0.31 -0.1,1.036 -0.251,1.411 0.254,1.112 -0.151,0.318 0,0"
   style="fill:#669276" />
				</g>
				<g
   id="g4208"
   transform="translate(303.616,776.4352)">
					<path
   id="path4210"
   d="M 0,0 C -0.05,-1.537 -0.389,-2.212 -1.148,-3.343 L -7.28,2.729 c -1.971,-1.816 -4.192,-4.167 -6.129,-6.072 -0.64,0.973 -1.098,2.06 -1.081,3.327 l 7.128,7.131 C -4.775,4.95 -2.554,2.246 0,0"
   style="fill:#b3cbb9" />
				</g>
				<g
   id="g4212"
   transform="translate(292.4516,780.1611)">
					<path
   id="path4214"
   d="M 0,0 C 0.081,0.461 -0.202,1.086 0.252,1.403 0.162,0.932 0.454,0.308 0,0"
   style="fill:#669276" />
				</g>
				<g
   id="g4216"
   transform="translate(307.4732,779.517)">
					<path
   id="path4218"
   d="M 0.001,0 C -0.238,-0.437 -1.408,0.668 -1.662,-0.142 -1.862,-0.783 -2.979,1.006 -2.54,1.884 -1.543,0.887 -1.662,2.29 -0.633,1.795 -0.283,1.628 -0.758,1.236 -0.709,0.932 -0.636,0.47 0.235,0.43 0.001,0"
   style="fill:#b3cbb9" />
				</g>
				<g
   id="g4220"
   transform="translate(287.1109,778.7463)">
					<path
   id="path4222"
   d="m 0,0 -0.162,0.494 c -0.179,-0.089 -0.341,-0.21 -0.575,-0.161 -0.138,0.219 -0.544,0.332 -0.414,0.665 0.154,0.276 0.892,0.088 0.575,0.574 l -0.18,0.339 C -0.87,1.831 -0.874,1.574 -1.07,1.824 -1.229,1.997 -1.064,2.178 -0.975,2.266 -0.49,2.34 -0.249,1.72 0.17,1.824 L 0.584,2.238 C 0.819,1.419 0.584,0.511 0,0"
   style="fill:#b3cbb9" />
				</g>
				<g
   id="g4224"
   transform="translate(291.876,779.577)">
					<path
   id="path4226"
   d="M 0,0 C 0.08,0.471 -0.211,1.094 0.244,1.412 0.162,0.941 0.454,0.317 0,0"
   style="fill:#669276" />
				</g>
				<g
   id="g4228"
   transform="translate(307.9118,780.3234)">
					<path
   id="path4230"
   d="M -0.001,0 C -0.026,-0.115 0.072,-0.276 -0.082,-0.332 -0.204,-0.251 -0.537,-0.016 -0.334,0.162 -0.211,0.13 -0.09,0.105 -0.001,0"
   style="fill:#669276" />
				</g>
				<g
   id="g4232"
   transform="translate(285.7552,779.4156)">
					<path
   id="path4234"
   d="M 0,0 C 0,-0.097 -0.024,-0.195 0.081,-0.251 -0.204,-0.115 -0.624,0.032 -0.665,0.413 -0.389,0.908 -0.106,0.234 0,0"
   style="fill:#669276" />
				</g>
				<g
   id="g4236"
   transform="translate(290.2384,777.9571)">
					<path
   id="path4238"
   d="M 0,0 C 0.081,0.447 -0.21,1.039 0.243,1.322 0.163,0.884 0.455,0.292 0,0"
   style="fill:#669276" />
				</g>
				<g
   id="g4240"
   transform="translate(287.2461,778.5071)">
					<path
   id="path4242"
   d="M 0,0 C -0.047,-0.048 -0.113,-0.089 -0.088,-0.171 L -0.332,0.081 C -0.21,0.098 -0.145,-0.056 0,0"
   style="fill:#b3cbb9" />
				</g>
				<g
   id="g4244"
   transform="translate(295.8403,777.2673)">
					<path
   id="path4246"
   d="M 0,0 C 0.081,0.437 -0.203,1.102 0.252,1.321 0.17,0.875 0.454,0.283 0,0"
   style="fill:#669276" />
				</g>
				<g
   id="g4248"
   transform="translate(296.748,777.2673)">
					<path
   id="path4250"
   d="M 0,0 C -0.454,0.283 -0.162,0.875 -0.243,1.321 0.211,1.102 -0.08,0.437 0,0"
   style="fill:#669276" />
				</g>
				<g
   id="g4252"
   transform="translate(295.3457,776.6835)">
					<path
   id="path4254"
   d="M 0,0 C 0.08,0.47 -0.203,1.094 0.252,1.411 0.162,0.941 0.454,0.316 0,0"
   style="fill:#669276" />
				</g>
				<g
   id="g4256"
   transform="translate(297.3318,776.6835)">
					<path
   id="path4258"
   d="M 0,0 C -0.454,0.316 -0.17,0.941 -0.251,1.411 0.202,1.094 -0.081,0.47 0,0"
   style="fill:#669276" />
				</g>
				<g
   id="g4260"
   transform="translate(294.7698,776.1077)">
					<path
   id="path4262"
   d="M 0,0 C 0.081,0.471 -0.21,1.087 0.244,1.403 0.162,0.932 0.453,0.316 0,0"
   style="fill:#669276" />
				</g>
				<g
   id="g4264"
   transform="translate(297.9077,776.1077)">
					<path
   id="path4266"
   d="M 0,0 C -0.455,0.316 -0.163,0.932 -0.245,1.403 0.211,1.087 -0.081,0.471 0,0"
   style="fill:#669276" />
				</g>
				<g
   id="g4268"
   transform="translate(294.1863,775.5236)">
					<path
   id="path4270"
   d="M 0,0 C 0.081,0.471 -0.203,1.095 0.252,1.412 0.17,0.941 0.454,0.317 0,0"
   style="fill:#669276" />
				</g>
				<g
   id="g4272"
   transform="translate(298.4908,775.5236)">
					<path
   id="path4274"
   d="M 0,0 C -0.461,0.317 -0.17,0.941 -0.252,1.412 0.203,1.095 -0.089,0.471 0,0"
   style="fill:#669276" />
				</g>
				<g
   id="g4276"
   transform="translate(293.6113,774.9489)">
					<path
   id="path4278"
   d="M 0,0 C 0.08,0.47 -0.212,1.094 0.242,1.402 0.162,0.939 0.453,0.316 0,0"
   style="fill:#669276" />
				</g>
				<g
   id="g4280"
   transform="translate(299.0667,774.9489)">
					<path
   id="path4282"
   d="M 0,0 C -0.454,0.316 -0.162,0.939 -0.252,1.402 0.203,1.094 -0.082,0.47 0,0"
   style="fill:#669276" />
				</g>
				<g
   id="g4284"
   transform="translate(306.3387,776.1886)">
					<path
   id="path4286"
   d="M 0,0 C 0.723,0.5 0.753,-1.191 1.573,-1.491 1.458,-1.774 1.508,-2.124 1.158,-2.318 0.833,-1.913 0.55,-1.183 -0.163,-1.24 0.04,-0.972 0.657,-0.794 0.414,-0.413 -0.173,-0.58 -0.288,-0.2 0,0"
   style="fill:#b3cbb9" />
				</g>
				<g
   id="g4288"
   transform="translate(293.0269,774.4542)">
					<path
   id="path4290"
   d="M 0,0 C 0.089,0.437 -0.203,1.038 0.251,1.321 0.17,0.884 0.463,0.284 0,0"
   style="fill:#669276" />
				</g>
				<g
   id="g4292"
   transform="translate(299.642,774.4542)">
					<path
   id="path4294"
   d="M 0.001,0 C -0.454,0.284 -0.163,0.884 -0.243,1.321 0.211,1.038 -0.081,0.437 0.001,0"
   style="fill:#669276" />
				</g>
				<g
   id="g4296"
   transform="translate(292.4516,773.8704)">
					<path
   id="path4298"
   d="M 0,0 C 0.081,0.446 -0.202,1.038 0.252,1.329 0.162,0.884 0.454,0.292 0,0"
   style="fill:#669276" />
				</g>
				<g
   id="g4300"
   transform="translate(300.1443,773.8704)">
					<path
   id="path4302"
   d="M 0,0 C -0.462,0.292 -0.169,0.884 -0.252,1.329 0.203,1.038 -0.088,0.446 0,0"
   style="fill:#669276" />
				</g>
				<g
   id="g4304"
   transform="translate(306.5898,774.5349)">
					<path
   id="path4306"
   d="m 0,0 c 0.552,-0.26 0.511,-1.281 1.24,-1.402 v -0.17 c -0.673,0.161 -1.078,0.973 -1.735,1.159 0.139,-0.591 -0.309,-0.913 -0.52,-1.351 -0.276,0.219 -0.931,0.224 -0.89,0.686 0.049,0.462 0.267,0.851 0.664,1.16 l 0.412,0.17 -0.825,-1.33 0.163,-0.163 C -0.608,-1.062 -1.152,0.544 0,0"
   style="fill:#669276" />
				</g>
				<g
   id="g4308"
   transform="translate(291.876,773.2939)">
					<path
   id="path4310"
   d="M 0,0 C 0.048,0.439 -0.138,0.989 0.162,1.323 0.235,1.007 0.422,0.285 0,0"
   style="fill:#669276" />
				</g>
				<g
   id="g4312"
   transform="translate(300.7208,773.2939)">
					<path
   id="path4314"
   d="M 0,0 C -0.455,0.285 -0.162,0.884 -0.252,1.323 0.202,1.111 -0.081,0.439 0,0"
   style="fill:#669276" />
				</g>
				<g
   id="g4316"
   transform="translate(301.2966,772.7189)">
					<path
   id="path4318"
   d="M 0.001,0 C -0.454,0.309 -0.163,0.932 -0.244,1.403 0.21,1.087 -0.082,0.463 0.001,0"
   style="fill:#669276" />
				</g>
				<g
   id="g4320"
   transform="translate(291.3729,772.7189)">
					<path
   id="path4322"
   d="M 0,0 C 0.057,0.438 -0.137,0.981 0.171,1.321 0.113,0.875 0.308,0.332 0,0"
   style="fill:#669276" />
				</g>
				<g
   id="g4324"
   transform="translate(301.8792,772.5494)">
					<path
   id="path4326"
   d="m 0,0 -0.171,-0.163 -0.081,1.16 C 0.203,0.818 -0.08,0.332 0,0"
   style="fill:#669276" />
				</g>
				<g
   id="g4328"
   transform="translate(290.9595,772.3869)">
					<path
   id="path4330"
   d="M 0,0 C -0.3,0.169 -0.105,0.552 -0.162,0.827 L 0.088,1.07 C 0.057,0.713 0.154,0.308 0,0"
   style="fill:#669276" />
				</g>
				<g
   id="g4332"
   transform="translate(305.183,793.0346)">
					<path
   id="path4334"
   d="M 0,0 C -0.202,-0.182 0.061,0.426 -0.183,0.466 -0.505,0.52 -0.344,0.183 -0.445,-0.202 -0.953,0.932 0.629,1.439 0,0"
   style="fill:#072e1b" />
				</g>
				<g
   id="g4336"
   transform="translate(302.8277,790.1921)">
					<path
   id="path4338"
   d="m 0,0 c 0.795,-0.616 1.014,-1.759 2.068,-1.978 -0.114,0.089 -0.13,0.211 -0.171,0.324 0.057,0.106 0.162,0.081 0.252,0.09 0.3,-0.041 0.211,-0.3 0.162,-0.503 h 0.17 c 0.153,0.089 0.056,0.276 0.081,0.413 -0.041,0.568 -0.932,0.657 -0.665,1.24 0.309,0 0.414,-0.373 0.584,-0.575 1.119,-0.235 2.351,-0.721 2.894,-1.816 0.08,0.317 -0.588,0.941 -0.251,1.151 0.167,0.105 0.494,-0.316 0.494,-0.575 0.467,0.365 -0.623,0.544 -0.325,0.907 0.305,0.369 -0.464,0.816 -0.251,0.998 0.512,0.433 0.336,-0.585 1.079,-0.998 0.218,-0.121 0.598,-0.121 0.827,0 C 6.855,0.79 3.269,1.854 3.551,1.905 5.821,2.311 6.146,2.675 6.106,2.959 6.045,3.384 3.956,3.283 3.309,3.145 3.997,2.898 3.779,2.728 3.057,2.651 3.49,2.23 3.459,2.043 2.399,2.238 2.943,1.864 3.016,1.621 1.986,1.743 3.347,1.297 3.611,0.877 1.788,1.399 1.363,1.52 0.917,1.412 1.485,1.241 3.105,0.75 3.916,0.069 1.322,0.997 2.214,0.405 3.247,-0.13 1.242,0.503 1.87,-0.081 1.668,-0.324 1.079,0.222 1.565,-0.385 1.059,-0.385 0.576,0.089 0.998,-0.669 0.612,-0.506 0,0"
   style="fill:#b3cbb9" />
				</g>
				<g
   id="g4340"
   transform="translate(296.3571,807.3635)">
					<path
   id="path4342"
   d="M 0,0 C 0.343,-0.315 -0.238,-0.817 -0.466,-0.598 -0.699,-0.375 -0.354,0.325 0,0"
   style="fill:#ffffff" />
				</g>
				<g
   id="g4344"
   transform="translate(295.668,806.6037)">
					<path
   id="path4346"
   d="M 0,0 C 0.171,-0.15 -0.314,-0.517 -0.426,-0.365 -0.538,-0.213 -0.243,0.213 0,0"
   style="fill:#ffffff" />
				</g>
				<g
   id="g4348"
   transform="translate(294.6855,806.6135)">
					<path
   id="path4350"
   d="M 0,0 C 0.307,-0.193 0.102,-0.78 -0.274,-0.628 -0.648,-0.476 -0.274,0.172 0,0"
   style="fill:#ffffff" />
				</g>
				<g
   id="g4352"
   transform="translate(294.1476,805.7931)">
					<path
   id="path4354"
   d="M 0,0 C 0.385,-0.081 0.273,-0.528 -0.091,-0.466 -0.309,-0.43 -0.173,0.036 0,0"
   style="fill:#ffffff" />
				</g>
				<g
   id="g4356"
   transform="translate(295.4352,797.5745)">
					<path
   id="path4358"
   d="M 0,0 C 0.131,-0.483 -1.014,-0.689 -1.135,-0.203 -1.256,0.284 -0.122,0.446 0,0"
   style="fill:#669276" />
				</g>
				<g
   id="g4360"
   transform="translate(293.5708,797.2306)">
					<path
   id="path4362"
   d="M 0,0 C 0,0 -0.345,0.486 -0.152,0.517 0.04,0.547 0.06,0.243 0,0"
   style="fill:#b3cbb9" />
				</g>
				<g
   id="g4364"
   transform="translate(293.9854,797.5044)">
					<path
   id="path4366"
   d="M 0,0 C 0.121,-0.081 0.08,-0.366 -0.08,-0.274 -0.243,-0.183 -0.061,0.04 0,0"
   style="fill:#669276" />
				</g>
				<g
   id="g4368"
   transform="translate(296.6308,798.0409)">
					<path
   id="path4370"
   d="M 0,0 C 0.252,-0.111 0.638,-0.446 0.466,-0.536 0.293,-0.629 0.141,-0.192 0,0"
   style="fill:#b3cbb9" />
				</g>
				<g
   id="g4372"
   transform="translate(299.1642,797.9493)">
					<path
   id="path4374"
   d="M 0,0 C 0.506,-0.191 0.66,-0.415 0.475,-0.546 0.293,-0.679 0.06,-0.293 0,0"
   style="fill:#669276" />
				</g>
				<g
   id="g4376"
   transform="translate(298.0498,794.4133)">
					<path
   id="path4378"
   d="M 0.001,0 C 0.06,-0.182 -0.305,-0.527 -0.367,-0.365 -0.426,-0.202 -0.042,0.122 0.001,0"
   style="fill:#072e1b" />
				</g>
				<g
   id="g4380"
   transform="translate(299.0667,791.8189)">
					<path
   id="path4382"
   d="m 0,0 c -0.003,-0.202 -0.322,0.002 -0.517,-0.071 -1.426,-0.413 -2.952,-0.643 -3.95,-1.915 -0.543,0.835 -0.876,1.54 -1.573,2.31 -0.632,0.6 -1.022,1.07 -1.483,1.744 1.613,0.056 3.12,0.372 4.297,1.483 0.081,-0.207 0.182,-0.369 -0.163,-0.494 -0.234,-0.941 0.34,-1.549 0.746,-2.23 0.468,0.144 0.817,0.256 0.575,-0.332 0.138,0.105 0.475,0.194 0.645,0.194 L -1.817,0.324 c 0.17,-0.056 1.416,0.141 1.484,0.171 h 0.25 L -0.087,0.324 C -0.534,0.279 -2.157,0.031 -2.068,-0.17 -2.03,-0.254 0.004,0.289 0,0"
   style="fill:#ffffff" />
				</g>
				<g
   id="g4384"
   transform="translate(293.6113,793.8866)">
					<path
   id="path4386"
   d="M 0,0 C -0.373,-0.211 -1.046,-0.293 -1.491,-0.252 -0.997,-0.171 -0.496,-0.09 0,0"
   style="fill:#072e1b" />
				</g>
				<g
   id="g4388"
   transform="translate(293.6917,793.3025)">
					<path
   id="path4390"
   d="M 0,0 C -0.267,-0.259 -0.705,-0.13 -1.078,-0.162 -0.786,-0.105 -0.414,0.073 0,0"
   style="fill:#072e1b" />
				</g>
				<g
   id="g4392"
   transform="translate(293.9437,792.8893)">
					<path
   id="path4394"
   d="M 0,0 C -0.121,-0.357 -0.592,-0.211 -0.917,-0.243 -0.779,0.073 -0.268,-0.179 0,0"
   style="fill:#072e1b" />
				</g>
				<g
   id="g4396"
   transform="translate(294.025,792.3947)">
					<path
   id="path4398"
   d="m 0,0 c -0.033,-0.292 -0.405,-0.122 -0.584,-0.252 l -0.082,0.09 C -0.447,-0.113 -0.276,0.073 0,0"
   style="fill:#072e1b" />
				</g>
				<g
   id="g4400"
   transform="translate(294.2675,791.73)">
					<path
   id="path4402"
   d="M 0,0 C -0.114,-0.147 -0.324,-0.049 -0.494,-0.081 -0.445,0.056 -0.138,0.17 0,0"
   style="fill:#072e1b" />
				</g>
				<g
   id="g4404"
   transform="translate(283.7122,793.8571)">
					<path
   id="path4406"
   d="M 0,0 C 0.063,-0.151 -0.389,-0.321 -0.457,-0.135 -0.524,0.051 -0.059,0.144 0,0"
   style="fill:#072e1b" />
				</g>
				<g
   id="g4408"
   transform="translate(286.2203,790.6822)">
					<path
   id="path4410"
   d="M 0,0 C 0.176,0.141 0.557,-0.177 0.303,-0.355 0.051,-0.532 -0.084,-0.068 0,0"
   style="fill:#072e1b" />
				</g>
				<g
   id="g4412"
   transform="translate(283.0374,788.1149)">
					<path
   id="path4414"
   d="M 0,0 C 0.1,-0.085 0.29,0.056 0.21,0.169 0.092,0.337 -0.06,0.051 -0.026,0.008"
   style="fill:#072e1b" />
				</g>
				<g
   id="g4416"
   transform="translate(284.9364,788.7819)">
					<path
   id="path4418"
   d="M 0,0 C 0.11,0.152 -0.051,0.557 0.143,0.448 0.338,0.338 0.27,0.051 0,0"
   style="fill:#072e1b" />
				</g>
				<g
   id="g4420"
   transform="translate(285.0968,788.3934)">
					<path
   id="path4422"
   d="M 0,0 C 0.161,0.22 0.33,0.338 0.447,0.127 0.566,-0.084 0.219,-0.126 0,0"
   style="fill:#072e1b" />
				</g>
				<g
   id="g4424"
   transform="translate(293.0226,812.2889)">
					<path
   id="path4426"
   d="m 0,0 c 0.121,0.358 0.126,0.922 -0.01,1.357 0,0 -0.223,-0.01 -0.223,0 C -0.334,0.841 -0.334,0.388 -0.212,0 H 0"
   style="fill:#ffffff" />
				</g>
				<g
   id="g4428"
   transform="translate(290.7169,813.395)">
					<path
   id="path4430"
   d="M 0,0 0.255,0.256 0,0.514 -0.257,0.256 0,0 z"
   style="fill:#ffffff" />
				</g>
				<g
   id="g4432"
   transform="translate(292.3207,813.395)">
					<path
   id="path4434"
   d="M 0,0 0.257,0.256 0,0.514 -0.257,0.256 0,0 z"
   style="fill:#ffffff" />
				</g>
				<g
   id="g4436"
   transform="translate(290.7169,812.0436)">
					<path
   id="path4438"
   d="M 0,0 0.255,0.257 0,0.513 -0.257,0.257 0,0 z"
   style="fill:#ffffff" />
				</g>
				<g
   id="g4440"
   transform="translate(292.3207,812.0436)">
					<path
   id="path4442"
   d="M 0,0 0.257,0.257 0,0.513 -0.257,0.257 0,0 z"
   style="fill:#ffffff" />
				</g>
				<g
   id="g4444"
   transform="translate(291.5315,812.2716)">
					<path
   id="path4446"
   d="M 0,0 0.695,0.696 0,1.391 -0.695,0.696 0,0 z"
   style="fill:#ffffff" />
				</g>
				<g
   id="g4448"
   transform="translate(291.5315,813.8631)">
					<path
   id="path4450"
   d="M 0,0 C 0.181,0 0.328,0.083 0.328,0.185 0.328,0.287 0.181,0.37 0,0.37 -0.181,0.37 -0.328,0.287 -0.328,0.185 -0.328,0.083 -0.181,0 0,0"
   style="fill:#ffffff" />
				</g>
				<g
   id="g4452"
   transform="translate(291.5315,811.7351)">
					<path
   id="path4454"
   d="M 0,0 C 0.181,0 0.328,0.083 0.328,0.185 0.328,0.287 0.181,0.37 0,0.37 -0.181,0.37 -0.328,0.287 -0.328,0.185 -0.328,0.083 -0.181,0 0,0"
   style="fill:#ffffff" />
				</g>
				<g
   id="g4456"
   transform="translate(290.2567,813.9662)">
					<path
   id="path4458"
   d="M 0,0 C 0.082,0 0.149,0.068 0.149,0.15 0.149,0.232 0.082,0.299 0,0.299 -0.083,0.299 -0.149,0.232 -0.149,0.15 -0.149,0.068 -0.083,0 0,0"
   style="fill:#ffffff" />
				</g>
				<g
   id="g4460"
   transform="translate(290.2567,811.7375)">
					<path
   id="path4462"
   d="M 0,0 C 0.082,0 0.149,0.066 0.149,0.149 0.149,0.232 0.082,0.298 0,0.298 -0.083,0.298 -0.149,0.232 -0.149,0.149 -0.149,0.066 -0.083,0 0,0"
   style="fill:#ffffff" />
				</g>
				<g
   id="g4464"
   transform="translate(296.3364,780.0567)">
					<path
   id="path4466"
   d="M 0,0 C 0.613,0 1.109,0.496 1.109,1.108 1.109,1.721 0.612,2.216 0,2.216 -0.612,2.216 -1.108,1.721 -1.108,1.108 -1.108,0.496 -0.612,0 0,0"
   style="fill:#072e1b" />
				</g>
				<g
   id="g4468"
   transform="translate(295.931,780.2868)">
					<path
   id="path4470"
   d="M 0,0 C -0.442,0.427 -0.875,0.985 -0.033,1.672 -0.42,0.744 -0.311,0.933 0,0"
   style="fill:#669276" />
				</g>
				<g
   id="g4472"
   transform="translate(296.4043,780.1687)">
					<path
   id="path4474"
   d="M 0,0 C -0.774,0.409 -0.927,1.369 0.017,1.942 -0.558,0.996 -0.558,0.946 0,0"
   style="fill:#669276" />
				</g>
				<g
   id="g4476"
   transform="translate(296.7419,780.2704)">
					<path
   id="path4478"
   d="M 0,0 C -0.673,0.308 -0.893,1.205 0,1.705 -0.507,0.962 -0.49,0.726 0,0"
   style="fill:#669276" />
				</g>
				<g
   id="g4480"
   transform="translate(297.0118,780.4731)">
					<path
   id="path4482"
   d="m -0.001,0 c -0.616,0.364 -0.741,0.89 0,1.3 -0.353,-0.389 -0.302,-0.862 0,-1.3"
   style="fill:#669276" />
				</g>
				<g
   id="g4484"
   transform="translate(297.1811,780.7087)">
					<path
   id="path4486"
   d="M 0,0 C -0.373,0.152 -0.405,0.659 0.033,0.845 -0.184,0.696 -0.143,0.132 0,0"
   style="fill:#669276" />
				</g>
				<g
   id="g4488"
   transform="translate(293.7023,777.6244)">
					<path
   id="path4490"
   d="M 0,0 C 0.611,0 1.107,0.496 1.107,1.108 1.107,1.72 0.611,2.217 0,2.217 -0.613,2.217 -1.109,1.72 -1.109,1.108 -1.109,0.496 -0.613,0 0,0"
   style="fill:#072e1b" />
				</g>
				<g
   id="g4492"
   transform="translate(293.2972,777.8545)">
					<path
   id="path4494"
   d="M 0,0 C -0.443,0.428 -0.876,0.986 -0.034,1.672 -0.422,0.744 -0.312,0.935 0,0"
   style="fill:#669276" />
				</g>
				<g
   id="g4496"
   transform="translate(293.7693,777.7364)">
					<path
   id="path4498"
   d="M 0,0 C -0.773,0.409 -0.927,1.37 0.017,1.942 -0.557,0.996 -0.557,0.946 0,0"
   style="fill:#669276" />
				</g>
				<g
   id="g4500"
   transform="translate(294.1071,777.8378)">
					<path
   id="path4502"
   d="M 0,0 C -0.673,0.307 -0.892,1.206 0,1.706 -0.507,0.962 -0.489,0.726 0,0"
   style="fill:#669276" />
				</g>
				<g
   id="g4504"
   transform="translate(294.378,778.0405)">
					<path
   id="path4506"
   d="M 0,0 C -0.617,0.365 -0.742,0.891 0,1.301 -0.355,0.912 -0.305,0.439 0,0"
   style="fill:#669276" />
				</g>
				<g
   id="g4508"
   transform="translate(294.5467,778.277)">
					<path
   id="path4510"
   d="M 0,0 C -0.371,0.151 -0.405,0.658 0.033,0.844 -0.183,0.695 -0.143,0.132 0,0"
   style="fill:#669276" />
				</g>
				<g
   id="g4512"
   transform="translate(291.1513,775.1412)">
					<path
   id="path4514"
   d="M 0,0 C 0.612,0 1.109,0.497 1.109,1.109 1.109,1.721 0.612,2.217 0,2.217 -0.612,2.217 -1.108,1.721 -1.108,1.109 -1.108,0.497 -0.612,0 0,0"
   style="fill:#072e1b" />
				</g>
				<g
   id="g4516"
   transform="translate(290.7468,775.3716)">
					<path
   id="path4518"
   d="M 0,0 C -0.443,0.428 -0.877,0.986 -0.034,1.672 -0.421,0.745 -0.311,0.934 0,0"
   style="fill:#669276" />
				</g>
				<g
   id="g4520"
   transform="translate(291.2192,775.2535)">
					<path
   id="path4522"
   d="M 0,0 C -0.774,0.41 -0.927,1.369 0.017,1.942 -0.557,0.996 -0.557,0.946 0,0"
   style="fill:#669276" />
				</g>
				<g
   id="g4524"
   transform="translate(291.557,775.3558)">
					<path
   id="path4526"
   d="M 0,0 C -0.673,0.307 -0.892,1.205 0,1.705 -0.507,0.962 -0.49,0.725 0,0"
   style="fill:#669276" />
				</g>
				<g
   id="g4528"
   transform="translate(291.8273,775.5576)">
					<path
   id="path4530"
   d="M 0,0 C -0.617,0.365 -0.741,0.891 0,1.3 -0.354,0.912 -0.304,0.439 0,0"
   style="fill:#669276" />
				</g>
				<g
   id="g4532"
   transform="translate(291.9966,775.7944)">
					<path
   id="path4534"
   d="M 0,0 C -0.372,0.152 -0.406,0.658 0.033,0.843 -0.184,0.695 -0.144,0.132 0,0"
   style="fill:#669276" />
				</g>
				<g
   id="g4536"
   transform="translate(298.9541,777.6408)">
					<path
   id="path4538"
   d="M 0,0 C 0.612,0 1.109,0.496 1.109,1.109 1.109,1.721 0.612,2.216 0,2.216 -0.612,2.216 -1.109,1.721 -1.109,1.109 -1.108,0.496 -0.612,0 0,0"
   style="fill:#072e1b" />
				</g>
				<g
   id="g4540"
   transform="translate(298.5487,777.8718)">
					<path
   id="path4542"
   d="M 0,0 C -0.442,0.427 -0.875,0.986 -0.033,1.672 -0.42,0.744 -0.311,0.934 0,0"
   style="fill:#669276" />
				</g>
				<g
   id="g4544"
   transform="translate(299.0223,777.7534)">
					<path
   id="path4546"
   d="M 0,0 C -0.773,0.409 -0.927,1.369 0.016,1.942 -0.557,0.997 -0.557,0.945 0,0"
   style="fill:#669276" />
				</g>
				<g
   id="g4548"
   transform="translate(299.3602,777.8545)">
					<path
   id="path4550"
   d="m -0.001,0 c -0.673,0.308 -0.892,1.206 0,1.705 C -0.507,0.963 -0.49,0.726 -0.001,0"
   style="fill:#669276" />
				</g>
				<g
   id="g4552"
   transform="translate(299.6295,778.0569)">
					<path
   id="path4554"
   d="m 0.001,0 c -0.617,0.365 -0.741,0.891 0,1.301 C -0.354,0.912 -0.304,0.44 0.001,0"
   style="fill:#669276" />
				</g>
				<g
   id="g4556"
   transform="translate(299.7985,778.294)">
					<path
   id="path4558"
   d="M 0,0 C -0.371,0.151 -0.405,0.658 0.034,0.844 -0.184,0.695 -0.143,0.132 0,0"
   style="fill:#669276" />
				</g>
				<g
   id="g4560"
   transform="translate(301.454,775.2091)">
					<path
   id="path4562"
   d="m -0.001,0 c 0.613,0 1.109,0.496 1.109,1.109 0,0.612 -0.496,1.107 -1.109,1.107 -0.611,0 -1.108,-0.495 -1.108,-1.107 C -1.108,0.496 -0.612,0 -0.001,0"
   style="fill:#072e1b" />
				</g>
				<g
   id="g4564"
   transform="translate(301.0486,775.4398)">
					<path
   id="path4566"
   d="M 0,0 C -0.442,0.427 -0.877,0.985 -0.033,1.671 -0.419,0.743 -0.311,0.934 0,0"
   style="fill:#669276" />
				</g>
				<g
   id="g4568"
   transform="translate(301.5219,775.3205)">
					<path
   id="path4570"
   d="M 0,0 C -0.774,0.41 -0.927,1.37 0.016,1.943 -0.558,0.997 -0.558,0.947 0,0"
   style="fill:#669276" />
				</g>
				<g
   id="g4572"
   transform="translate(301.8597,775.4219)">
					<path
   id="path4574"
   d="M 0,0 C -0.673,0.309 -0.894,1.207 0,1.707 -0.507,0.963 -0.49,0.726 0,0"
   style="fill:#669276" />
				</g>
				<g
   id="g4576"
   transform="translate(302.1291,775.6255)">
					<path
   id="path4578"
   d="M 0,0 C -0.616,0.364 -0.74,0.89 0,1.301 -0.354,0.911 -0.303,0.439 0,0"
   style="fill:#669276" />
				</g>
				<g
   id="g4580"
   transform="translate(302.2978,775.8614)">
					<path
   id="path4582"
   d="M 0,0 C -0.37,0.152 -0.405,0.659 0.034,0.845 -0.183,0.696 -0.142,0.132 0,0"
   style="fill:#669276" />
				</g>
				<g
   id="g4584"
   transform="translate(303.062,785.9426)">
					<path
   id="path4586"
   d="m 0,0 c -0.413,0 -0.425,0.67 -0.803,0.67 -0.448,0 -0.551,-0.687 -0.86,-0.687 -0.308,0 -0.445,0.687 -0.79,0.687 -0.309,0 -0.515,-0.687 -0.858,-0.687 -0.345,0 -0.409,0.687 -0.787,0.687 -0.33,0 -0.322,-0.636 -0.791,-0.636 0.117,0.61 0.503,1.022 0.791,1.306 0.378,0 0.442,-0.688 0.787,-0.688 0.343,0 0.549,0.688 0.858,0.688 0.345,0 0.482,-0.688 0.79,-0.688 0.309,0 0.412,0.688 0.86,0.688 C -0.461,1.013 -0.168,0.67 0,0"
   style="fill:#427357" />
				</g>
				<g
   id="g4588"
   transform="translate(302.2591,785.668)">
					<path
   id="path4590"
   d="M 0,0 C 0.446,0 0.378,-0.636 0.824,-0.636 0.781,-1.015 0.738,-1.092 0.647,-1.289 0.322,-1.289 0.327,-0.67 0,-0.67 c -0.448,0 -0.551,-0.688 -0.86,-0.688 -0.309,0 -0.445,0.688 -0.79,0.688 -0.309,0 -0.515,-0.688 -0.858,-0.688 -0.345,0 -0.409,0.688 -0.787,0.688 -0.295,0 -0.364,-0.619 -0.639,-0.619 -0.112,0.207 -0.147,0.318 -0.191,0.653 0.5,0 0.517,0.636 0.83,0.636 0.378,0 0.442,-0.688 0.787,-0.688 0.343,0 0.549,0.688 0.858,0.688 0.345,0 0.481,-0.688 0.79,-0.688 C -0.551,-0.688 -0.448,0 0,0"
   style="fill:#427357" />
				</g>
				<g
   id="g4592"
   transform="translate(302.2591,784.087)">
					<path
   id="path4594"
   d="m 0,0 c 0.205,0 0.266,-0.115 0.342,-0.223 -0.961,-1.271 -2.953,-1.366 -3.976,0 0,0 0.137,0.223 0.339,0.223 0.378,0 0.442,-0.687 0.787,-0.687 0.343,0 0.549,0.687 0.858,0.687 0.345,0 0.481,-0.687 0.79,-0.687 C -0.551,-0.687 -0.448,0 0,0"
   style="fill:#427357" />
				</g>
				<g
   id="g4596"
   transform="translate(298.8056,773.0389)">
					<path
   id="path4598"
   d="m 0,0 c -0.412,0 -0.425,0.669 -0.804,0.669 -0.446,0 -0.549,-0.685 -0.858,-0.685 -0.311,0 -0.448,0.685 -0.791,0.685 -0.309,0 -0.514,-0.685 -0.858,-0.685 -0.344,0 -0.407,0.685 -0.785,0.685 -0.331,0 -0.323,-0.635 -0.79,-0.635 0.116,0.609 0.501,1.023 0.79,1.306 0.378,0 0.441,-0.687 0.785,-0.687 0.344,0 0.549,0.687 0.858,0.687 0.344,0 0.48,-0.687 0.791,-0.687 0.309,0 0.412,0.687 0.858,0.687 C -0.46,1.014 -0.168,0.669 0,0"
   style="fill:#427357" />
				</g>
				<g
   id="g4600"
   transform="translate(298.002,772.7634)">
					<path
   id="path4602"
   d="M 0,0 C 0.447,0 0.38,-0.635 0.825,-0.635 0.781,-1.012 0.739,-1.09 0.649,-1.288 c -0.326,0 -0.323,0.619 -0.649,0.619 -0.447,0 -0.55,-0.688 -0.858,-0.688 -0.31,0 -0.447,0.688 -0.791,0.688 -0.309,0 -0.515,-0.688 -0.858,-0.688 -0.344,0 -0.407,0.688 -0.786,0.688 -0.297,0 -0.366,-0.619 -0.64,-0.619 -0.111,0.207 -0.146,0.318 -0.189,0.653 0.499,0 0.515,0.635 0.829,0.635 0.379,0 0.442,-0.686 0.786,-0.686 0.343,0 0.549,0.686 0.858,0.686 0.344,0 0.481,-0.686 0.791,-0.686 C -0.55,-0.686 -0.447,0 0,0"
   style="fill:#427357" />
				</g>
				<g
   id="g4604"
   transform="translate(298.002,771.1837)">
					<path
   id="path4606"
   d="m 0,0 c 0.206,0 0.267,-0.116 0.344,-0.223 -0.962,-1.271 -2.954,-1.366 -3.977,0 0,0 0.137,0.223 0.34,0.223 0.379,0 0.442,-0.686 0.786,-0.686 0.343,0 0.549,0.686 0.858,0.686 0.344,0 0.481,-0.686 0.791,-0.686 C -0.55,-0.686 -0.447,0 0,0"
   style="fill:#427357" />
				</g>
				<g
   id="g4608"
   transform="translate(294.4828,785.8751)">
					<path
   id="path4610"
   d="m 0,0 c -0.413,0 -0.426,0.67 -0.803,0.67 -0.448,0 -0.55,-0.687 -0.86,-0.687 -0.309,0 -0.447,0.687 -0.79,0.687 -0.309,0 -0.516,-0.687 -0.858,-0.687 -0.344,0 -0.408,0.687 -0.786,0.687 -0.331,0 -0.323,-0.636 -0.79,-0.636 0.115,0.61 0.502,1.022 0.79,1.305 0.378,0 0.442,-0.687 0.786,-0.687 0.342,0 0.549,0.687 0.858,0.687 0.343,0 0.481,-0.687 0.79,-0.687 0.31,0 0.412,0.687 0.86,0.687 C -0.46,1.014 -0.168,0.67 0,0"
   style="fill:#427357" />
				</g>
				<g
   id="g4612"
   transform="translate(293.6795,785.5999)">
					<path
   id="path4614"
   d="M 0,0 C 0.447,0 0.377,-0.635 0.824,-0.635 0.781,-1.013 0.738,-1.091 0.648,-1.289 c -0.326,0 -0.322,0.62 -0.648,0.62 -0.447,0 -0.55,-0.688 -0.86,-0.688 -0.309,0 -0.447,0.688 -0.789,0.688 -0.31,0 -0.516,-0.688 -0.859,-0.688 -0.344,0 -0.408,0.688 -0.786,0.688 -0.296,0 -0.366,-0.62 -0.641,-0.62 -0.111,0.207 -0.145,0.319 -0.188,0.654 0.498,0 0.515,0.635 0.829,0.635 0.378,0 0.442,-0.687 0.786,-0.687 0.343,0 0.549,0.687 0.859,0.687 0.342,0 0.48,-0.687 0.789,-0.687 C -0.55,-0.687 -0.447,0 0,0"
   style="fill:#427357" />
				</g>
				<g
   id="g4616"
   transform="translate(293.6795,784.0192)">
					<path
   id="path4618"
   d="m 0,0 c 0.206,0 0.266,-0.115 0.343,-0.223 -0.962,-1.271 -2.955,-1.366 -3.976,0 0,0 0.137,0.223 0.339,0.223 0.378,0 0.442,-0.687 0.786,-0.687 0.343,0 0.549,0.687 0.859,0.687 0.342,0 0.48,-0.687 0.789,-0.687 C -0.55,-0.687 -0.447,0 0,0"
   style="fill:#427357" />
				</g>
				<g
   id="g4620"
   transform="translate(297.8891,782.4315)">
					<path
   id="path4622"
   d="M 0,0 C -0.496,0.31 -0.1,1.037 -0.252,1.41 0.255,1.113 -0.15,0.319 0,0"
   style="fill:#669276" />
				</g>
				<g
   id="g4624"
   transform="translate(298.4714,781.908)">
					<path
   id="path4626"
   d="M 0,0 C -0.497,0.31 -0.1,1.036 -0.251,1.411 0.255,1.113 -0.151,0.319 0,0"
   style="fill:#669276" />
				</g>
				<g
   id="g4628"
   transform="translate(299.0628,781.2663)">
					<path
   id="path4630"
   d="M 0,0 C -0.497,0.31 -0.1,1.036 -0.252,1.411 0.255,1.113 -0.152,0.319 0,0"
   style="fill:#669276" />
				</g>
				<g
   id="g4632"
   transform="translate(299.6365,780.7254)">
					<path
   id="path4634"
   d="M 0,0 C -0.495,0.311 -0.1,1.037 -0.251,1.411 0.254,1.112 -0.15,0.319 0,0"
   style="fill:#669276" />
				</g>
				<g
   id="g4636"
   transform="translate(300.1519,780.1763)">
					<path
   id="path4638"
   d="M 0,0 C -0.496,0.311 -0.1,1.037 -0.252,1.411 0.255,1.112 -0.15,0.32 0,0"
   style="fill:#669276" />
				</g>
				<g
   id="g4640"
   transform="translate(300.7256,779.577)">
					<path
   id="path4642"
   d="M 0,0 C -0.495,0.311 -0.098,1.037 -0.251,1.411 0.254,1.113 -0.149,0.319 0,0"
   style="fill:#669276" />
				</g>
				<g
   id="g4644"
   transform="translate(301.2921,779.0112)">
					<path
   id="path4646"
   d="M 0,0 C -0.497,0.31 -0.1,1.037 -0.252,1.41 0.255,1.112 -0.15,0.319 0,0"
   style="fill:#669276" />
				</g>
				<g
   id="g4648"
   transform="translate(301.8741,778.4633)">
					<path
   id="path4650"
   d="M 0,0 C -0.495,0.309 -0.098,1.036 -0.25,1.41 0.255,1.111 -0.149,0.318 0,0"
   style="fill:#669276" />
				</g>
				<g
   id="g4652"
   transform="translate(302.4484,777.9214)">
					<path
   id="path4654"
   d="M 0,0 C -0.497,0.311 -0.099,1.037 -0.252,1.411 0.255,1.113 -0.151,0.319 0,0"
   style="fill:#669276" />
				</g>
				<g
   id="g4656"
   transform="translate(303.0402,777.3057)">
					<path
   id="path4658"
   d="M 0,0 C -0.497,0.31 -0.099,1.037 -0.251,1.411 0.255,1.112 -0.15,0.319 0,0"
   style="fill:#669276" />
				</g>
				<g
   id="g4660"
   transform="translate(303.5801,776.8153)">
					<path
   id="path4662"
   d="M 0,0 C -0.495,0.311 -0.1,1.038 -0.252,1.411 0.255,1.113 -0.15,0.319 0,0"
   style="fill:#669276" />
				</g>
				<g
   id="g4664"
   transform="translate(295.8445,783.5507)">
					<path
   id="path4666"
   d="M 0,0 C 0.496,0.31 0.099,1.037 0.251,1.41 -0.256,1.112 0.15,0.318 0,0"
   style="fill:#669276" />
				</g>
				<g
   id="g4668"
   transform="translate(294.7722,782.4449)">
					<path
   id="path4670"
   d="M 0,0 C 0.496,0.31 0.099,1.036 0.25,1.41 -0.255,1.112 0.15,0.318 0,0"
   style="fill:#669276" />
				</g>
				<g
   id="g4672"
   transform="translate(294.2356,781.9156)">
					<path
   id="path4674"
   d="M 0,0 C 0.497,0.312 0.1,1.037 0.251,1.411 -0.255,1.113 0.149,0.319 0,0"
   style="fill:#669276" />
				</g>
				<g
   id="g4676"
   transform="translate(293.6451,781.3245)">
					<path
   id="path4678"
   d="M 0,0 C 0.496,0.31 0.099,1.038 0.25,1.412 -0.255,1.114 0.149,0.32 0,0"
   style="fill:#669276" />
				</g>
				<g
   id="g4680"
   transform="translate(293.1039,780.7842)">
					<path
   id="path4682"
   d="M 0,0 C 0.497,0.311 0.1,1.037 0.251,1.411 -0.255,1.113 0.15,0.319 0,0"
   style="fill:#669276" />
				</g>
				<g
   id="g4684"
   transform="translate(291.3479,779.0282)">
					<path
   id="path4686"
   d="M 0,0 C 0.496,0.31 0.1,1.036 0.251,1.411 -0.256,1.112 0.15,0.319 0,0"
   style="fill:#669276" />
				</g>
				<g
   id="g4688"
   transform="translate(290.7812,778.4797)">
					<path
   id="path4690"
   d="M 0,0 C 0.497,0.31 0.1,1.036 0.252,1.41 -0.254,1.113 0.151,0.318 0,0"
   style="fill:#669276" />
				</g>
				<g
   id="g4692"
   transform="translate(289.1345,776.8744)">
					<path
   id="path4694"
   d="M 0,0 C 0.497,0.311 0.101,1.037 0.252,1.411 -0.255,1.113 0.15,0.319 0,0"
   style="fill:#669276" />
				</g>
				<g
   id="g4696"
   transform="translate(289.7006,777.407)">
					<path
   id="path4698"
   d="M 0,0 C 0.497,0.31 0.1,1.036 0.252,1.411 -0.254,1.113 0.151,0.319 0,0"
   style="fill:#669276" />
				</g>
				<g
   id="g4700"
   transform="translate(296.9181,810.0919)">
					<path
   id="path4702"
   d="m -0.001,0 v 0.079 h -0.293 c -0.062,-0.148 -0.291,-0.22 -0.372,0.002 -1.072,0.013 -2.196,-0.332 -2.309,-0.828 -0.041,-0.172 -0.023,-0.364 0.082,-0.493 0.369,0.631 1.409,0.01 1.734,-0.665 0.216,0.344 0.404,0.621 0.827,0.494 -0.001,0.385 -0.284,0.835 -0.665,0.827 0.267,0.203 0.802,-0.081 0.916,0.332 -0.389,0.027 -0.212,0.234 0.08,0.252"
   style="fill:#ffffff" />
				</g>
				<g
   id="g4704"
   transform="translate(295.426,809.589)">
					<path
   id="path4706"
   d="M 0,0 H -0.243 C -0.308,0.162 -0.153,0.316 0,0.251 V 0"
   style="fill:#072e1b" />
				</g>
				<g
   id="g4708"
   transform="translate(292.03,782.8552)">
					<path
   id="path4710"
   d="M 0,0 C 1.362,0 2.465,1.103 2.465,2.465 2.465,3.826 1.362,4.931 0,4.931 -1.362,4.931 -2.465,3.826 -2.465,2.465 -2.465,1.103 -1.362,0 0,0 m -2.721,2.465 c 0,1.503 1.218,2.721 2.721,2.721 1.502,0 2.721,-1.218 2.721,-2.721 0,-1.503 -1.219,-2.722 -2.721,-2.722 -1.503,0 -2.721,1.219 -2.721,2.722"
   style="fill:#072e1b" />
				</g>
				<g
   id="g4712"
   transform="translate(300.6093,782.9225)">
					<path
   id="path4714"
   d="M 0,0 C 1.362,0 2.466,1.103 2.466,2.465 2.466,3.827 1.362,4.93 0,4.93 -1.361,4.93 -2.466,3.827 -2.466,2.465 -2.465,1.103 -1.361,0 0,0 m -2.721,2.465 c 0,1.503 1.219,2.721 2.722,2.721 1.503,0 2.722,-1.218 2.722,-2.721 0,-1.503 -1.219,-2.722 -2.722,-2.722 -1.503,0 -2.722,1.219 -2.722,2.722"
   style="fill:#072e1b" />
				</g>
				<g
   id="g4716"
   transform="translate(296.3529,770.0185)">
					<path
   id="path4718"
   d="M 0,0 C 1.361,0 2.466,1.103 2.466,2.466 2.466,3.827 1.361,4.932 0,4.932 -1.361,4.932 -2.465,3.827 -2.465,2.466 -2.465,1.103 -1.361,0 0,0 m -2.72,2.466 c 0,1.503 1.218,2.72 2.72,2.72 1.504,0 2.722,-1.217 2.722,-2.72 0,-1.503 -1.219,-2.722 -2.722,-2.722 -1.502,0 -2.72,1.219 -2.72,2.722"
   style="fill:#072e1b" />
				</g>
				<g
   id="g4720"
   transform="translate(287.3499,771.1191)">
					<path
   id="path4722"
   d="M 0,0 C 0.068,0.103 0.132,0.228 0.023,0.351 -0.073,0.46 -0.194,0.439 -0.271,0.372 -0.374,0.28 -0.363,0.168 -0.321,0.006 c 0.041,-0.163 0.093,-0.354 -0.067,-0.495 -0.149,-0.132 -0.38,-0.111 -0.546,0.078 -0.052,0.058 -0.081,0.114 -0.101,0.157 -0.019,0.047 -0.028,0.077 -0.033,0.098 0.021,0.036 0.126,0.162 0.186,0.232 l 0.047,-0.034 c -0.068,-0.097 -0.155,-0.288 -0.024,-0.435 0.095,-0.108 0.217,-0.111 0.32,-0.02 0.105,0.092 0.086,0.215 0.049,0.371 -0.031,0.135 -0.088,0.339 0.072,0.481 0.136,0.12 0.349,0.113 0.511,-0.07 C 0.15,0.304 0.187,0.231 0.218,0.162 0.172,0.111 0.123,0.055 0.044,-0.035 L 0,0"
   style="fill:#072e1b" />
				</g>
				<g
   id="g4724"
   transform="translate(288.0006,770.542)">
					<path
   id="path4726"
   d="M 0,0 -0.003,0.002 C -0.159,-0.069 -0.317,-0.147 -0.468,-0.216 L -0.22,-0.461 0,0 z m -0.578,-0.851 0.037,0.038 c 0.095,-0.073 0.118,-0.074 0.152,-0.005 0.035,0.07 0.079,0.17 0.131,0.281 l -0.287,0.283 C -0.626,-0.293 -0.703,-0.33 -0.774,-0.368 -0.888,-0.426 -0.889,-0.449 -0.797,-0.561 l -0.037,-0.038 -0.294,0.29 0.037,0.038 c 0.098,-0.073 0.125,-0.084 0.289,-0.009 L 0.173,0.151 0.227,0.122 C 0.083,-0.191 -0.08,-0.537 -0.224,-0.855 -0.296,-1.012 -0.289,-1.043 -0.211,-1.139 l -0.037,-0.037 -0.33,0.325"
   style="fill:#072e1b" />
				</g>
				<g
   id="g4728"
   transform="translate(288.5689,769.449)">
					<path
   id="path4730"
   d="M 0,0 C 0.013,-0.023 0.043,-0.066 0.091,-0.106 0.185,-0.186 0.344,-0.232 0.498,-0.049 0.63,0.108 0.586,0.258 0.468,0.358 0.427,0.392 0.391,0.411 0.372,0.409 0.353,0.41 0.334,0.396 0.299,0.354 L 0,0 z M 0.527,0.388 C 0.629,0.301 0.699,0.213 0.721,0.122 0.741,0.031 0.721,-0.066 0.642,-0.16 0.484,-0.348 0.267,-0.321 0.11,-0.219 0.086,-0.203 0.058,-0.18 0.044,-0.166 l -0.084,0.118 -0.191,-0.227 c -0.104,-0.123 -0.097,-0.141 0.026,-0.259 l -0.034,-0.041 -0.392,0.33 0.034,0.041 c 0.123,-0.089 0.144,-0.087 0.245,0.033 l 0.488,0.579 c 0.107,0.127 0.1,0.142 -0.001,0.24 l 0.035,0.04 0.357,-0.3"
   style="fill:#072e1b" />
				</g>
				<g
   id="g4732"
   transform="translate(288.8517,768.4537)">
					<path
   id="path4734"
   d="m 0,0 0.032,0.042 c 0.131,-0.083 0.15,-0.083 0.246,0.047 l 0.45,0.607 C 0.824,0.826 0.818,0.844 0.7,0.945 L 0.732,0.988 1.135,0.689 1.103,0.647 C 0.972,0.73 0.953,0.73 0.857,0.601 L 0.407,-0.007 C 0.31,-0.138 0.317,-0.154 0.434,-0.256 L 0.403,-0.298 0,0"
   style="fill:#072e1b" />
				</g>
				<g
   id="g4736"
   transform="translate(290.4521,767.7231)">
					<path
   id="path4738"
   d="m 0,0 c -0.043,-0.046 -0.171,-0.176 -0.217,-0.216 l -0.768,0.491 0.029,0.045 c 0.152,-0.082 0.173,-0.077 0.257,0.053 l 0.405,0.635 c 0.091,0.142 0.082,0.156 -0.035,0.247 l 0.028,0.043 0.71,-0.455 C 0.385,0.805 0.323,0.691 0.275,0.605 L 0.225,0.629 C 0.253,0.705 0.26,0.75 0.261,0.797 0.261,0.846 0.225,0.885 0.11,0.958 l -0.121,0.078 c -0.05,0.031 -0.056,0.028 -0.085,-0.018 l -0.233,-0.363 0.15,-0.096 c 0.145,-0.093 0.161,-0.085 0.248,0.01 L 0.116,0.539 -0.079,0.235 -0.125,0.264 c 0.052,0.127 0.046,0.143 -0.092,0.232 L -0.369,0.593 -0.561,0.292 C -0.609,0.217 -0.622,0.176 -0.605,0.138 c 0.017,-0.04 0.072,-0.076 0.152,-0.127 0.121,-0.077 0.174,-0.093 0.235,-0.074 0.048,0.015 0.113,0.05 0.176,0.099 L 0,0"
   style="fill:#072e1b" />
				</g>
				<g
   id="g4740"
   transform="translate(292.1947,767.8071)">
					<path
   id="path4742"
   d="M 0,0 C -0.097,0.043 -0.149,0.041 -0.192,-0.028 -0.225,-0.077 -0.267,-0.152 -0.345,-0.309 L -0.688,-0.99 -0.74,-0.964 -1.015,0.284 -1.019,0.286 -1.232,-0.139 C -1.31,-0.294 -1.346,-0.378 -1.365,-0.429 -1.4,-0.52 -1.371,-0.56 -1.26,-0.625 l -0.024,-0.047 -0.4,0.201 0.024,0.048 c 0.099,-0.042 0.153,-0.044 0.204,0.035 0.031,0.05 0.078,0.13 0.155,0.284 l 0.187,0.372 c 0.061,0.123 0.062,0.132 0.052,0.187 -0.015,0.061 -0.043,0.092 -0.119,0.139 l 0.023,0.047 0.249,-0.125 0.281,-1.202 0.005,-0.002 0.208,0.414 c 0.078,0.156 0.112,0.236 0.129,0.287 0.03,0.08 0.002,0.121 -0.113,0.187 L -0.375,0.248 0.024,0.047 0,0"
   style="fill:#072e1b" />
				</g>
				<g
   id="g4744"
   transform="translate(292.8567,767.3165)">
					<path
   id="path4746"
   d="M 0,0 C 0.012,0.123 0.01,0.263 -0.144,0.321 -0.28,0.372 -0.377,0.297 -0.413,0.202 -0.462,0.073 -0.4,-0.021 -0.287,-0.145 c 0.113,-0.125 0.249,-0.269 0.173,-0.469 -0.069,-0.186 -0.283,-0.275 -0.518,-0.187 -0.073,0.027 -0.126,0.064 -0.164,0.092 -0.038,0.032 -0.06,0.055 -0.075,0.07 0.002,0.042 0.036,0.203 0.056,0.293 l 0.058,-0.008 c -0.014,-0.118 -0.002,-0.327 0.182,-0.396 0.135,-0.05 0.244,0.004 0.293,0.133 0.049,0.131 -0.025,0.229 -0.131,0.35 -0.09,0.105 -0.237,0.259 -0.161,0.459 0.064,0.17 0.254,0.264 0.483,0.178 C -0.01,0.339 0.057,0.292 0.117,0.245 0.1,0.179 0.082,0.107 0.055,-0.01 L 0,0"
   style="fill:#072e1b" />
				</g>
				<g
   id="g4748"
   transform="translate(294.1625,766.0874)">
					<path
   id="path4750"
   d="M 0,0 C 0.015,-0.015 0.029,-0.031 0.043,-0.045 0.2,-0.032 0.378,0.108 0.437,0.405 0.513,0.791 0.364,1.05 0.11,1.101 -0.096,1.141 -0.323,1.001 -0.393,0.646 -0.455,0.331 -0.342,0.072 -0.135,-0.016 L 0,0 z M 0.474,-0.491 C 0.384,-0.475 0.294,-0.442 0.242,-0.416 0.189,-0.39 0.058,-0.293 -0.136,-0.091 -0.24,-0.065 -0.394,0.008 -0.49,0.147 -0.58,0.273 -0.629,0.448 -0.592,0.634 -0.524,0.977 -0.23,1.237 0.167,1.158 0.479,1.097 0.71,0.795 0.637,0.422 0.572,0.091 0.327,-0.08 0.095,-0.106 0.194,-0.208 0.339,-0.343 0.496,-0.455 L 0.474,-0.491"
   style="fill:#072e1b" />
				</g>
				<g
   id="g4752"
   transform="translate(296.3273,766.9631)">
					<path
   id="path4754"
   d="m 0,0 c -0.114,-0.002 -0.158,-0.024 -0.17,-0.103 -0.009,-0.05 -0.019,-0.131 -0.028,-0.307 l -0.008,-0.153 c -0.012,-0.223 -0.055,-0.383 -0.168,-0.491 -0.094,-0.086 -0.223,-0.119 -0.347,-0.112 -0.111,0.006 -0.218,0.038 -0.298,0.105 -0.108,0.092 -0.153,0.237 -0.142,0.46 l 0.025,0.47 c 0.009,0.17 -0.008,0.179 -0.154,0.2 L -1.287,0.122 -0.8,0.096 -0.803,0.043 C -0.951,0.041 -0.966,0.031 -0.975,-0.139 l -0.023,-0.429 c -0.016,-0.306 0.095,-0.486 0.33,-0.499 0.271,-0.014 0.369,0.21 0.385,0.522 l 0.008,0.141 c 0.009,0.174 0.007,0.254 0.003,0.312 -0.006,0.075 -0.044,0.1 -0.177,0.116 L -0.447,0.077 0.003,0.053 0,0"
   style="fill:#072e1b" />
				</g>
				<g
   id="g4756"
   transform="translate(296.5261,765.8104)">
					<path
   id="path4758"
   d="m 0,0 -0.002,0.053 c 0.154,0.018 0.168,0.03 0.162,0.19 L 0.129,0.999 C 0.122,1.16 0.107,1.171 -0.049,1.175 L -0.051,1.228 0.45,1.249 0.452,1.197 C 0.297,1.179 0.282,1.167 0.289,1.006 L 0.321,0.25 C 0.328,0.088 0.343,0.079 0.499,0.074 L 0.501,0.021 0,0"
   style="fill:#072e1b" />
				</g>
				<g
   id="g4760"
   transform="translate(298.0821,766.5309)">
					<path
   id="path4762"
   d="M -0.001,0 C 0.026,-0.006 0.078,-0.012 0.14,-0.002 0.26,0.016 0.402,0.103 0.367,0.341 0.337,0.543 0.195,0.61 0.042,0.587 -0.01,0.58 -0.048,0.565 -0.06,0.55 -0.073,0.536 -0.076,0.513 -0.067,0.458 L -0.001,0 z m 0.06,0.651 C 0.192,0.671 0.304,0.664 0.387,0.621 0.468,0.575 0.527,0.496 0.545,0.374 0.581,0.131 0.417,-0.014 0.237,-0.063 0.209,-0.071 0.173,-0.076 0.153,-0.077 l -0.144,0.015 0.043,-0.294 c 0.023,-0.159 0.041,-0.166 0.212,-0.152 l 0.007,-0.052 -0.508,-0.075 -0.006,0.052 c 0.147,0.034 0.159,0.051 0.138,0.206 l -0.109,0.749 c -0.025,0.165 -0.041,0.17 -0.18,0.159 l -0.008,0.052 0.461,0.068"
   style="fill:#072e1b" />
				</g>
				<g
   id="g4764"
   transform="translate(299.2993,766.7607)">
					<path
   id="path4766"
   d="M -0.001,0 C 0.091,0.022 0.149,0.052 0.185,0.102 0.244,0.174 0.255,0.253 0.23,0.354 0.182,0.553 0.033,0.594 -0.104,0.561 -0.157,0.548 -0.187,0.533 -0.199,0.518 -0.212,0.505 -0.212,0.482 -0.199,0.432 L -0.088,-0.022 -0.001,0 z M 0.82,-0.431 C 0.798,-0.436 0.776,-0.442 0.755,-0.445 0.614,-0.471 0.528,-0.449 0.416,-0.35 c -0.086,0.074 -0.18,0.172 -0.257,0.249 -0.044,0.043 -0.08,0.058 -0.173,0.035 l -0.06,-0.014 0.072,-0.293 c 0.037,-0.154 0.057,-0.163 0.205,-0.138 l 0.013,-0.052 -0.482,-0.117 -0.012,0.051 c 0.148,0.048 0.159,0.063 0.122,0.219 l -0.18,0.737 C -0.375,0.485 -0.391,0.486 -0.538,0.464 L -0.55,0.516 -0.095,0.627 C 0.04,0.66 0.134,0.665 0.214,0.636 0.3,0.607 0.369,0.536 0.395,0.425 0.433,0.267 0.358,0.146 0.239,0.052 0.284,0.001 0.391,-0.103 0.467,-0.173 0.556,-0.252 0.604,-0.291 0.662,-0.327 0.724,-0.371 0.773,-0.38 0.816,-0.381 l 0.004,-0.05"
   style="fill:#072e1b" />
				</g>
				<g
   id="g4768"
   transform="translate(300.4699,767.7286)">
					<path
   id="path4770"
   d="m 0,0 c -0.197,-0.073 -0.315,-0.308 -0.191,-0.642 0.124,-0.334 0.395,-0.509 0.645,-0.416 0.199,0.073 0.314,0.303 0.188,0.644 C 0.503,-0.04 0.234,0.087 0.002,0.001 L 0,0 z M 0.016,0.078 C 0.314,0.189 0.672,0.056 0.805,-0.299 0.946,-0.682 0.764,-1.016 0.441,-1.136 c -0.322,-0.119 -0.67,0.035 -0.797,0.377 -0.116,0.32 -0.003,0.699 0.37,0.837 h 0.002"
   style="fill:#072e1b" />
				</g>
				<g
   id="g4772"
   transform="translate(301.9301,768.1082)">
					<path
   id="path4774"
   d="m 0,0 c -0.082,0.092 -0.186,0.186 -0.333,0.113 -0.131,-0.066 -0.142,-0.188 -0.096,-0.279 0.062,-0.123 0.173,-0.142 0.34,-0.143 C 0.08,-0.311 0.276,-0.31 0.373,-0.501 0.462,-0.678 0.382,-0.895 0.157,-1.008 0.088,-1.043 0.026,-1.057 -0.02,-1.066 c -0.05,-0.006 -0.081,-0.007 -0.103,-0.007 -0.03,0.03 -0.123,0.164 -0.177,0.24 l 0.045,0.037 c 0.077,-0.091 0.239,-0.223 0.414,-0.135 0.129,0.064 0.164,0.181 0.102,0.304 -0.063,0.126 -0.186,0.138 -0.345,0.142 -0.14,0.005 -0.352,0.003 -0.447,0.194 -0.08,0.162 -0.02,0.366 0.198,0.476 0.078,0.038 0.158,0.055 0.232,0.067 0.037,-0.057 0.079,-0.119 0.146,-0.219 L 0,0"
   style="fill:#072e1b" />
				</g>
				<g
   id="g4776"
   transform="translate(302.6542,768.121)">
					<path
   id="path4778"
   d="M 0,0 C 0.026,0.005 0.076,0.021 0.129,0.054 0.234,0.119 0.327,0.255 0.2,0.459 0.091,0.633 -0.065,0.637 -0.197,0.555 -0.242,0.527 -0.27,0.498 -0.275,0.48 -0.282,0.462 -0.274,0.44 -0.245,0.393 L 0,0 z M -0.205,0.62 C -0.092,0.692 0.012,0.73 0.106,0.724 0.2,0.715 0.286,0.666 0.351,0.562 0.481,0.353 0.388,0.155 0.242,0.037 0.22,0.019 0.19,0 0.171,-0.009 L 0.034,-0.053 0.192,-0.305 C 0.276,-0.441 0.295,-0.44 0.446,-0.36 L 0.474,-0.405 0.039,-0.676 0.011,-0.631 c 0.122,0.09 0.127,0.11 0.045,0.244 l -0.402,0.641 c -0.087,0.142 -0.105,0.14 -0.229,0.074 l -0.028,0.045 0.398,0.247"
   style="fill:#072e1b" />
				</g>
				<g
   id="g4780"
   transform="translate(303.6924,768.0927)">
					<path
   id="path4782"
   d="m 0,0 -0.032,0.042 c 0.118,0.102 0.123,0.12 0.027,0.249 l -0.452,0.607 c -0.096,0.129 -0.115,0.129 -0.246,0.045 l -0.032,0.043 0.402,0.299 0.031,-0.042 C -0.419,1.141 -0.425,1.123 -0.329,0.994 L 0.123,0.387 C 0.22,0.257 0.239,0.258 0.37,0.342 L 0.401,0.299 0,0"
   style="fill:#072e1b" />
				</g>
				<g
   id="g4784"
   transform="translate(304.9541,769.5443)">
					<path
   id="path4786"
   d="m 0,0 c 0.038,-0.083 0.096,-0.219 0.114,-0.289 -0.032,-0.044 -0.126,-0.178 -0.228,-0.269 -0.351,-0.313 -0.722,-0.208 -0.922,0.017 -0.265,0.298 -0.21,0.697 0.104,0.977 0.115,0.102 0.239,0.157 0.284,0.185 0.081,-0.069 0.141,-0.119 0.219,-0.188 L -0.461,0.387 c -0.173,0.116 -0.312,0.101 -0.463,-0.035 -0.236,-0.21 -0.184,-0.522 0.007,-0.736 0.235,-0.264 0.552,-0.307 0.767,-0.115 0.143,0.128 0.151,0.274 0.096,0.476 L 0,0"
   style="fill:#072e1b" />
				</g>
				<g
   id="g4788"
   transform="translate(305.337,769.502)">
					<path
   id="path4790"
   d="m 0,0 -0.038,0.036 c 0.098,0.121 0.1,0.14 -0.017,0.25 l -0.55,0.52 c -0.116,0.11 -0.136,0.107 -0.25,0.002 l -0.039,0.036 0.345,0.364 0.039,-0.036 c -0.098,-0.12 -0.1,-0.139 0.016,-0.25 L 0.056,0.403 C 0.173,0.291 0.192,0.296 0.306,0.401 L 0.345,0.364 0,0"
   style="fill:#072e1b" />
				</g>
				<g
   id="g4792"
   transform="translate(305.7668,771.4278)">
					<path
   id="path4794"
   d="M 0,0 C -0.083,0.043 -0.13,0.057 -0.17,0.061 -0.224,0.064 -0.254,0.05 -0.345,-0.062 l -0.083,-0.103 0.725,-0.586 c 0.114,-0.093 0.139,-0.095 0.261,0.037 l 0.041,-0.034 -0.341,-0.42 -0.04,0.033 c 0.099,0.141 0.094,0.165 -0.022,0.259 l -0.725,0.586 -0.073,-0.091 c -0.1,-0.122 -0.112,-0.161 -0.092,-0.207 0.009,-0.038 0.044,-0.085 0.094,-0.154 l -0.035,-0.043 c -0.083,0.08 -0.173,0.164 -0.25,0.232 l 0.024,0.029 c 0.051,-0.007 0.068,0.01 0.102,0.051 l 0.47,0.581 c 0.032,0.04 0.033,0.059 0.023,0.103 l 0.025,0.031 C -0.175,0.19 -0.061,0.108 0.032,0.048 L 0,0"
   style="fill:#072e1b" />
				</g>
				<g
   id="g4796"
   transform="translate(298.5749,789.5878)">
					<path
   id="path4798"
   d="m 0,0 c 0,0 0.595,-0.549 0.625,-0.748 l -0.534,0.076 c 0,0 0.184,0.336 -0.213,0.611 L 0,0"
   style="fill:#ffffff" />
				</g>
				<g
   id="g4800"
   transform="translate(299.5063,789.4352)">
					<path
   id="path4802"
   d="m 0,0 0.184,0.107 c 0,0 0.442,-0.366 0.398,-0.672 0,0 -0.2,-0.091 -0.352,-0.016 C 0.229,-0.581 0.213,-0.076 0,0"
   style="fill:#ffffff" />
				</g>
				<g
   id="g4804"
   transform="translate(300.0252,789.5723)">
					<path
   id="path4806"
   d="M 0,0 0.183,-0.015 0.534,-0.58 0.336,-0.625 c 0,0 -0.183,0.427 -0.336,0.625"
   style="fill:#ffffff" />
				</g>
				<g
   id="g4808"
   transform="translate(299.6131,790.3969)">
					<path
   id="path4810"
   d="m 0,0 c 0.072,-0.107 0.489,-0.381 0.366,-0.458 -0.123,-0.076 -0.381,0.153 -0.488,0.26 -0.107,0.107 -0.29,0.305 -0.259,0.397 C -0.352,0.291 -0.061,0.092 0,0"
   style="fill:#ffffff" />
				</g>
			</g>
		</g>
	</g>
</g>
</svg>