<?xml version="1.0" standalone="no"?>
<!DOCTYPE svg PUBLIC "-//W3C//DTD SVG 20010904//EN"
 "http://www.w3.org/TR/2001/REC-SVG-20010904/DTD/svg10.dtd">
<svg version="1.0" xmlns="http://www.w3.org/2000/svg"
 width="1024.000000pt" height="1024.000000pt" viewBox="0 0 1024.000000 1024.000000"
 preserveAspectRatio="xMidYMid meet">
<metadata>
Created by potrace 1.14, written by Peter Selinger 2001-2017
</metadata>
<g transform="translate(0.000000,1024.000000) scale(0.100000,-0.100000)"
fill="#000000" stroke="none">
<path d="M4630 10086 c-299 -63 -319 -68 -630 -161 -51 -15 -286 -63 -495
-100 -44 -8 -147 -31 -230 -50 -82 -19 -163 -35 -179 -35 -16 0 -67 -9 -115
-19 -132 -29 -241 -50 -296 -56 -27 -3 -72 -10 -100 -15 -27 -6 -111 -19 -185
-30 -74 -11 -164 -27 -200 -35 -60 -14 -229 -49 -375 -80 -33 -6 -85 -19 -115
-27 -30 -9 -72 -19 -92 -22 -49 -9 -281 -85 -391 -129 -133 -54 -266 -131
-380 -223 -149 -119 -211 -194 -298 -357 -62 -116 -115 -258 -169 -457 -18
-63 -38 -137 -46 -165 -89 -321 -164 -786 -234 -1445 -11 -102 -22 -198 -25
-215 -2 -16 -10 -111 -15 -210 -11 -175 -14 -211 -25 -325 -3 -30 -7 -105 -10
-167 -3 -61 -10 -156 -15 -210 -5 -54 -10 -304 -10 -556 l0 -458 58 6 c31 4
102 13 157 20 55 8 139 17 186 21 l86 7 6 -48 c4 -26 7 -72 7 -102 0 -30 6
-113 14 -186 14 -125 17 -160 31 -372 4 -49 9 -106 11 -125 2 -19 9 -102 14
-185 16 -239 30 -408 50 -605 5 -52 16 -160 25 -240 29 -288 36 -357 50 -510
32 -365 108 -861 150 -985 36 -106 101 -216 164 -275 66 -62 196 -141 266
-162 178 -52 187 -54 570 -73 266 -14 607 -38 705 -50 19 -2 80 -9 135 -15
120 -13 646 -101 870 -145 313 -62 408 -84 780 -185 90 -24 229 -66 385 -116
58 -18 161 -49 230 -68 121 -34 128 -35 180 -22 30 8 89 21 130 31 41 9 118
30 170 47 52 16 167 52 255 79 367 115 416 130 541 159 72 16 257 61 410 99
154 38 326 79 384 91 58 12 150 32 205 45 55 13 125 29 155 35 332 70 448 93
520 106 47 8 130 26 185 39 93 22 201 46 510 111 172 36 381 94 455 127 124
55 279 165 371 265 157 170 278 413 368 742 104 381 169 722 227 1195 8 66 19
154 24 195 6 41 16 167 24 280 8 113 18 230 21 260 27 241 48 732 59 1403 l7
388 -43 -5 c-24 -3 -110 -14 -193 -26 -82 -11 -159 -22 -170 -23 -21 -2 -25
37 -74 598 -27 312 -72 698 -186 1595 -50 392 -106 717 -151 880 -14 52 -30
111 -34 130 -18 77 -62 188 -100 254 -22 38 -40 72 -40 76 0 4 -42 48 -93 96
-108 103 -188 148 -342 193 -112 33 -196 44 -500 66 -115 8 -241 17 -280 21
-38 3 -95 8 -125 10 -30 3 -118 12 -195 20 -77 8 -214 21 -305 29 -91 8 -203
19 -250 25 -47 5 -138 16 -202 24 -65 8 -126 17 -135 20 -22 7 -183 31 -373
56 -175 22 -329 47 -379 59 -20 5 -58 12 -86 16 -57 8 -284 53 -455 90 -63 14
-155 32 -205 41 -49 9 -137 25 -195 36 -165 32 -186 31 -410 -16z m-1605
-2558 c45 -12 53 -18 86 -73 39 -65 145 -251 219 -385 26 -47 65 -117 88 -156
23 -39 42 -74 42 -77 0 -4 19 -37 41 -74 23 -38 55 -93 72 -123 51 -95 229
-415 237 -425 4 -5 27 -46 50 -90 24 -44 62 -111 85 -150 55 -91 123 -212 216
-383 9 -18 22 -38 27 -45 5 -7 28 -48 52 -92 47 -89 62 -117 144 -260 66 -115
74 -130 100 -168 10 -16 31 -55 47 -88 16 -33 49 -92 73 -132 45 -75 138 -240
165 -292 8 -16 44 -82 79 -145 36 -63 79 -142 97 -175 17 -33 68 -127 113
-208 45 -81 89 -163 97 -182 7 -19 16 -35 19 -35 3 0 14 29 25 65 19 61 141
396 160 440 5 11 30 72 54 135 25 63 57 142 70 175 13 33 43 110 66 170 24 61
58 146 76 190 19 44 56 137 84 207 28 70 55 135 61 145 5 10 32 74 59 143 27
69 60 145 72 170 12 25 34 74 49 110 15 36 43 101 63 145 19 44 52 121 72 170
21 50 61 142 90 205 29 63 79 176 110 250 32 74 61 140 65 145 4 6 14 30 23
55 17 51 164 388 255 585 33 72 71 142 85 156 68 70 226 86 689 70 189 -7 390
-18 448 -25 100 -13 106 -16 137 -50 53 -57 47 -67 -47 -81 -83 -12 -213 -46
-252 -66 -53 -27 -150 -102 -184 -142 -15 -17 -40 -59 -56 -93 -57 -121 -69
-250 -48 -520 5 -71 14 -226 20 -344 5 -118 14 -271 20 -340 5 -69 14 -222 20
-340 6 -118 15 -262 20 -320 5 -58 14 -199 20 -315 6 -115 15 -262 20 -325 15
-175 39 -504 50 -684 14 -211 19 -276 30 -361 5 -38 12 -101 16 -140 9 -89 44
-209 84 -284 62 -116 180 -203 373 -277 l97 -37 0 -93 c0 -101 3 -95 -66 -149
l-32 -25 -53 19 c-64 22 -228 63 -354 88 -74 15 -137 18 -350 17 -286 0 -301
-2 -575 -81 -68 -19 -149 -38 -180 -40 l-55 -5 -23 58 c-46 119 -53 214 -19
248 28 28 149 59 317 81 69 9 142 21 163 26 55 15 118 81 140 148 24 74 23
346 -3 736 -10 165 -24 379 -30 475 -6 96 -20 292 -31 435 -36 476 -68 948
-78 1165 -6 118 -15 267 -21 330 -5 63 -14 239 -20 390 -14 362 -21 480 -28
480 -11 0 -82 -178 -176 -440 -21 -58 -55 -148 -77 -200 -21 -52 -52 -131 -68
-175 -16 -44 -57 -152 -91 -240 -166 -432 -214 -555 -237 -615 -13 -36 -31
-79 -39 -96 -7 -18 -61 -148 -118 -290 -57 -143 -125 -306 -151 -364 -26 -58
-66 -159 -90 -225 -24 -66 -82 -214 -130 -330 -48 -115 -121 -298 -161 -405
-41 -107 -90 -229 -109 -271 -20 -42 -58 -137 -84 -210 -53 -144 -137 -342
-164 -383 -11 -16 -23 -23 -32 -20 -33 13 -159 192 -216 307 -47 95 -89 174
-140 262 -25 44 -65 116 -89 160 -24 44 -77 141 -118 215 -42 74 -93 169 -115
210 -22 41 -59 108 -83 147 -24 40 -44 76 -44 79 0 4 -46 90 -101 193 -56 102
-111 204 -123 226 -11 22 -44 82 -73 133 -29 51 -53 95 -53 97 0 3 -17 33 -38
67 -21 35 -85 153 -142 263 -57 110 -113 218 -125 240 -13 22 -57 105 -100
185 -43 80 -98 183 -123 230 -25 47 -48 90 -52 95 -4 6 -73 138 -153 295 -212
417 -217 427 -217 433 0 15 -80 177 -88 177 -18 0 -37 -284 -52 -775 -6 -187
-15 -396 -20 -465 -5 -69 -14 -294 -20 -500 -6 -206 -15 -418 -20 -470 -5 -52
-12 -205 -15 -340 -4 -135 -11 -333 -16 -440 -5 -107 -12 -308 -16 -446 -6
-239 -5 -254 16 -322 15 -50 28 -75 44 -83 33 -18 384 -57 632 -70 121 -6 223
-14 227 -18 5 -5 38 -294 38 -338 0 -9 -7 -12 -17 -9 -10 3 -40 7 -68 10 -27
3 -93 10 -145 16 -107 11 -396 34 -660 51 -101 7 -253 9 -360 6 -200 -7 -286
-21 -492 -80 -138 -40 -131 -43 -172 76 -29 85 -33 139 -12 159 7 8 55 36 107
63 71 37 111 67 163 120 135 138 154 196 196 600 6 55 15 138 20 185 5 47 16
182 25 300 8 118 20 249 25 290 6 41 15 163 20 270 23 454 71 1066 141 1770
28 285 35 485 19 593 -12 85 -14 91 -69 160 -69 86 -195 206 -225 212 -11 2
-70 12 -130 21 -88 14 -118 23 -155 48 -25 17 -47 38 -49 47 -3 18 63 50 144
70 115 28 867 33 969 7z"/>
</g>
</svg>
